<?xml version="1.0" standalone="no"?>
<!DOCTYPE svg PUBLIC "-//W3C//DTD SVG 1.1//EN" "http://www.w3.org/Graphics/SVG/1.1/DTD/svg11.dtd" >
<svg xmlns="http://www.w3.org/2000/svg">
<metadata>
Created by FontPrep 20130207 at Tue Mar  8 18:19:21 2016
 By Michael Cattell
Copyright (c) 2014 by Grilli Type. All rights reserved.
</metadata>
<defs>
<font id="392504cda5653c30d1c6c0fe162f65ae" horiz-adv-x='1024' >
  <font-face 
    font-family="GTWalsheimProTrial-Bold"
    font-weight="700"
    font-stretch="normal"
    units-per-em="2048"
    panose-1="2 0 5 3 4 0 0 2 0 3"
    ascent="1536"
    descent="-512"
    x-height="987"
    cap-height="1434"
    bbox="-29 -473 2660 1513"
    underline-thickness="102"
    underline-position="-51"
    unicode-range="U+0020-FB01"
  />
<missing-glyph horiz-adv-x="1126" 
d="M782 406q0 -57 -49 -58q-35 0 -35 27t47 33l37 4v-6zM637 373q0 -68 78 -70q51 0 71 39q0 -23 2 -33h60q-6 31 -6 43v82q0 55 -20 80t-74 25q-100 0 -105 -76h59q2 31 41 31t39 -45q-66 -6 -102 -17q-43 -18 -43 -59zM770 700v324h-59v-324h59zM623 633h-66v-62h66v62z
M297 750q-84 0 -84 110t87 111q44 0 58 -47l62 24q-29 80 -112 80t-123 -47t-40 -120t37 -120t102 -47t87 41l8 -35h47v179h-137v-58h82v-4q-1 -25 -19 -47t-55 -20zM897 1024v-59h66v59h-66zM616 1024v-59h66v59h-66zM524 539q-41 0 -61 -43v36h-57v-223h61v101q0 72 57 71
q13 0 21 -2v58q-6 2 -21 2zM874 309h60v324h-60v-324zM182 629v-60h90v-260h62v260h90v60h-242zM899 926v-226h62v226h-62zM582 932q-37 0 -64 -43v37h-55v-226h59v103q0 72 62 71q14 0 20 -2v56q-12 4 -22 4zM621 532h-62v-223h62v223zM102 0v1434h922v-1434h-922zM618 926
v-226h62v226h-62zM864 700v324h-61v-324h61z" />
    <glyph glyph-name=".notdef" horiz-adv-x="1126" 
d="M782 406q0 -57 -49 -58q-35 0 -35 27t47 33l37 4v-6zM637 373q0 -68 78 -70q51 0 71 39q0 -23 2 -33h60q-6 31 -6 43v82q0 55 -20 80t-74 25q-100 0 -105 -76h59q2 31 41 31t39 -45q-66 -6 -102 -17q-43 -18 -43 -59zM770 700v324h-59v-324h59zM623 633h-66v-62h66v62z
M297 750q-84 0 -84 110t87 111q44 0 58 -47l62 24q-29 80 -112 80t-123 -47t-40 -120t37 -120t102 -47t87 41l8 -35h47v179h-137v-58h82v-4q-1 -25 -19 -47t-55 -20zM897 1024v-59h66v59h-66zM616 1024v-59h66v59h-66zM524 539q-41 0 -61 -43v36h-57v-223h61v101q0 72 57 71
q13 0 21 -2v58q-6 2 -21 2zM874 309h60v324h-60v-324zM182 629v-60h90v-260h62v260h90v60h-242zM899 926v-226h62v226h-62zM582 932q-37 0 -64 -43v37h-55v-226h59v103q0 72 62 71q14 0 20 -2v56q-12 4 -22 4zM621 532h-62v-223h62v223zM102 0v1434h922v-1434h-922zM618 926
v-226h62v226h-62zM864 700v324h-61v-324h61z" />
    <glyph glyph-name=".null" horiz-adv-x="0" 
 />
    <glyph glyph-name="nonmarkingreturn" horiz-adv-x="681" 
 />
    <glyph glyph-name="space" unicode=" " horiz-adv-x="497" 
 />
    <glyph glyph-name="exclam" unicode="!" horiz-adv-x="618" 
d="M102 186q0 84 60 144t147 61q87 0 147 -60q60 -61 60 -145t-59 -144t-147 -60t-148 60t-60 144z" />
    <glyph glyph-name="comma" unicode="," horiz-adv-x="632" 
d="M94 184q0 86 60 146t154 61q93 0 158 -73t64 -189q0 -227 -107 -326q-108 -98 -319 -100v127q115 0 187 53q55 45 61 115q-16 -16 -53 -16q-93 0 -149 58t-56 144z" />
    <glyph glyph-name="hyphen" unicode="-" horiz-adv-x="649" 
d="M584 733v-250h-518v250h518z" />
    <glyph glyph-name="period" unicode="." horiz-adv-x="618" 
d="M102 186q0 84 60 144t147 61q87 0 147 -60q60 -61 60 -145t-59 -144t-147 -60t-148 60t-60 144z" />
    <glyph glyph-name="zero" unicode="0" horiz-adv-x="1261" 
d="M846 481v471q0 96 -60 164t-157 68t-155 -68t-58 -164v-471q0 -96 58 -164q58 -67 154 -67t158 68q60 68 60 163zM84 481v471q0 215 150 364q151 148 395 148q245 0 397 -150t152 -362v-471q0 -213 -153 -363t-397 -149t-394 149t-150 363z" />
    <glyph glyph-name="one" unicode="1" horiz-adv-x="829" 
d="M59 948v234q201 0 271 57t69 195h293v-1434h-338v948h-295z" />
    <glyph glyph-name="two" unicode="2" horiz-adv-x="1181" 
d="M772 1048q0 168 -168 166q-78 0 -128 -51t-50 -157h-330q0 202 136 330t362 128t364 -110q139 -110 140 -324q0 -174 -139 -298q-107 -96 -236 -173q-156 -105 -203 -157t-47 -134h614v-268h-995q0 335 109 496q57 84 115 135t196 133t180 125q80 72 80 159z" />
    <glyph glyph-name="three" unicode="3" horiz-adv-x="1230" 
d="M782 1052q0 164 -176 162q-170 -1 -170 -208h-332q0 198 127 328t359 130t376 -104t144 -297q0 -117 -60 -202t-151 -116q102 -37 168 -125t66 -221q0 -197 -151 -313t-366 -117q-260 1 -405 141t-145 371h331q-1 -115 59 -181t152 -64q92 0 144 55q51 55 51 133
q0 199 -211 199h-129v256h129q190 0 190 173z" />
    <glyph glyph-name="four" unicode="4" horiz-adv-x="1251" 
d="M690 0v395h-573v1039h332v-758h241v395h330v-395h174v-281h-174v-395h-330z" />
    <glyph glyph-name="five" unicode="5" horiz-adv-x="1300" 
d="M141 604v830h969v-258h-664v-320q39 63 122 97t169 34q225 0 347 -146t122 -358t-150 -363t-400 -151q-248 0 -398 151t-149 367h321q0 -102 62 -173q62 -70 164 -70q101 0 165 71q63 73 63 175t-62 174t-165 71q-141 0 -206 -131h-310z" />
    <glyph glyph-name="six" unicode="6" horiz-adv-x="1228" 
d="M611 248q101 0 165 70t64 174t-64 174t-164 70q-102 0 -165 -70q-62 -70 -62 -173t62 -175q63 -70 164 -70zM1159 476q1 -204 -149 -354q-150 -151 -399 -151t-399 151t-149 370q0 160 89 296l413 646h373l-287 -430q43 -6 86 -23q193 -25 307 -163t115 -342z" />
    <glyph glyph-name="seven" unicode="7" horiz-adv-x="1087" 
d="M72 1434h1030l-610 -1434h-355l498 1155h-563v279z" />
    <glyph glyph-name="eight" unicode="8" horiz-adv-x="1261" 
d="M632 219q98 1 158 59t60 139t-58 139t-160 58t-160 -57t-58 -140t59 -141q60 -57 159 -57zM631 858q86 0 137 52t51 126t-51 126t-137 52t-137 -51q-52 -51 -52 -126t52 -127t137 -52zM633 -31q-248 0 -394 126t-147 315q0 117 66 213t166 125q-90 35 -143 119
q-52 85 -52 186q0 176 136 294q137 117 367 117t366 -118t137 -293q-1 -99 -53 -185t-142 -120q100 -34 165 -130t64 -210q0 -184 -144 -312t-392 -127z" />
    <glyph glyph-name="nine" unicode="9" horiz-adv-x="1228" 
d="M617 1186q-101 0 -164 -71t-63 -174t62 -173q64 -70 165 -70t164 70t63 173t-63 174t-164 71zM70 944q0 217 149 368q151 150 399 150t398 -150t149 -370q0 -158 -88 -297l-413 -645h-373l287 428q-232 14 -370 156t-138 360z" />
    <glyph glyph-name="colon" unicode=":" horiz-adv-x="618" 
d="M102 186q0 84 60 144t147 61q87 0 147 -60q60 -61 60 -145t-59 -144t-147 -60t-148 60t-60 144z" />
    <glyph glyph-name="semicolon" unicode=";" horiz-adv-x="632" 
d="M94 184q0 86 60 146t154 61q93 0 158 -73t64 -189q0 -227 -107 -326q-108 -98 -319 -100v127q115 0 187 53q55 45 61 115q-16 -16 -53 -16q-93 0 -149 58t-56 144z" />
    <glyph glyph-name="question" unicode="?" horiz-adv-x="618" 
d="M102 186q0 84 60 144t147 61q87 0 147 -60q60 -61 60 -145t-59 -144t-147 -60t-148 60t-60 144z" />
    <glyph glyph-name="A" unicode="A" horiz-adv-x="1351" 
d="M1343 0h-360l-55 174h-510l-56 -174h-354l512 1434h305zM846 434l-172 590l-176 -590h348z" />
    <glyph glyph-name="B" unicode="B" horiz-adv-x="1296" 
d="M668 606h-209v-352h207q110 0 154 51t44 121t-45 125t-151 55zM459 850h198q109 0 154 52t45 119t-43 118t-156 51h-198v-340zM129 0v1434h594q306 0 414 -188q51 -89 51 -206q0 -118 -77 -204t-173 -109q84 -2 173 -91t89 -235q0 -189 -134 -304q-115 -97 -337 -97h-600
z" />
    <glyph glyph-name="C" unicode="C" horiz-adv-x="1613" 
d="M836 -37q-350 0 -561 220q-209 219 -209 531t206 534q208 222 536 222t518 -166q189 -167 222 -427h-346q-25 131 -120 213t-244 81q-201 0 -318 -133q-117 -132 -117 -324t121 -322t330 -130q121 0 218 72t126 180h352q-44 -238 -236 -394t-478 -157z" />
    <glyph glyph-name="D" unicode="D" horiz-adv-x="1474" 
d="M647 1147h-178v-860h178q193 0 309 127t115 303q1 176 -115 303t-309 127zM137 1434h527q340 0 542 -213t203 -504q0 -188 -85 -349q-85 -160 -258 -264t-402 -104h-527v1434z" />
    <glyph glyph-name="E" unicode="E" horiz-adv-x="1136" 
d="M1012 1167h-543v-325h543v-260h-543v-316h543v-266h-875v1434h875v-267z" />
    <glyph glyph-name="F" unicode="F" horiz-adv-x="1126" 
d="M1012 1155h-543v-387h543v-272h-543v-496h-332v1434h875v-279z" />
    <glyph glyph-name="G" unicode="G" horiz-adv-x="1710" 
d="M932 510v248h743v-248h-147q-44 -252 -228 -399t-483 -148q-231 -1 -405 105t-260 275t-86 374q0 307 206 530q207 223 545 223q275 0 459 -145t203 -356h-355q-16 90 -100 152t-209 63q-193 0 -301 -137t-108 -336t112 -333t326 -134q143 0 233 76t109 190h-254z" />
    <glyph glyph-name="H" unicode="H" horiz-adv-x="1431" 
d="M965 0v569h-496v-569h-332v1434h332v-580h496v580h329v-1434h-329z" />
    <glyph glyph-name="I" unicode="I" horiz-adv-x="610" 
d="M137 0v1434h336v-1434h-336z" />
    <glyph glyph-name="J" unicode="J" horiz-adv-x="1193" 
d="M1071 1434v-940q0 -254 -138 -392t-387 -137t-385 149t-136 382h331q0 -111 50 -179q50 -67 142 -67q93 0 143 64t50 180v940h330z" />
    <glyph glyph-name="K" unicode="K" horiz-adv-x="1349" 
d="M469 0h-332v1434h332v-609l463 609h399l-567 -717l567 -717h-399l-463 606v-606z" />
    <glyph glyph-name="L" unicode="L" horiz-adv-x="927" 
d="M469 287h408v-287h-740v1434h332v-1147z" />
    <glyph glyph-name="M" unicode="M" horiz-adv-x="1796" 
d="M1659 1434v-1434h-324v889l-309 -889h-246l-319 889v-889h-324v1434h383l383 -998l379 998h377z" />
    <glyph glyph-name="N" unicode="N" horiz-adv-x="1468" 
d="M1001 1434h330v-1434h-346l-516 922v-922h-332v1434h346l518 -934v934z" />
    <glyph glyph-name="O" unicode="O" horiz-adv-x="1648" 
d="M825 262q188 0 304 135t116 319t-116 320q-116 135 -304 135t-304 -134q-115 -134 -115 -320t115 -321q116 -134 304 -134zM1583 717q0 -309 -208 -531t-551 -223q-343 0 -551 222q-207 221 -207 531t207 532q208 222 551 222t551 -222t208 -531z" />
    <glyph glyph-name="P" unicode="P" horiz-adv-x="1300" 
d="M696 668q102 0 166 72q63 73 64 175q0 101 -64 175t-166 73h-227v-495h227zM137 0v1434h600q231 0 377 -152t146 -367t-146 -367t-377 -151h-268v-397h-332z" />
    <glyph glyph-name="Q" unicode="Q" horiz-adv-x="1648" 
d="M825 262q188 0 304 135t116 319t-116 320q-116 135 -304 135t-304 -134q-115 -134 -115 -320t115 -321q116 -134 304 -134zM1583 717q0 -219 -112 -403t-308 -271l123 -166l-291 -147l-172 233q-344 2 -551 223q-206 220 -206 530t207 532q208 222 551 222t551 -222
t208 -531z" />
    <glyph glyph-name="R" unicode="R" horiz-adv-x="1339" 
d="M137 0v1434h602q231 0 377 -152t146 -367q0 -151 -76 -275t-209 -187l287 -453h-385l-254 397h-156v-397h-332zM696 668q102 0 166 72q63 73 64 175q0 101 -64 175t-166 73h-227v-495h227z" />
    <glyph glyph-name="S" unicode="S" horiz-adv-x="1241" 
d="M78 475h332q0 -115 63 -181t155 -67q92 0 146 47q53 47 53 121q0 109 -133 165q-32 13 -112 43q-80 29 -132 51t-127 65t-112 86q-94 109 -92 262q0 188 147 296q147 107 374 107q228 0 360 -131t133 -325h-332q0 96 -46 151t-126 55t-130 -38q-50 -39 -50 -107
q0 -67 52 -111t136 -73t161 -57t133 -63q132 -84 162 -135q64 -107 64 -214q0 -217 -148 -338q-149 -121 -389 -121t-391 136t-151 376z" />
    <glyph glyph-name="T" unicode="T" horiz-adv-x="1042" 
d="M354 0v1147h-323v287h981v-287h-326v-1147h-332z" />
    <glyph glyph-name="U" unicode="U" horiz-adv-x="1345" 
d="M115 489v945h331v-942q0 -100 64 -171t162 -71q100 0 164 71q63 71 63 171v942h332v-945q0 -227 -154 -377q-153 -150 -405 -149t-404 151t-153 375z" />
    <glyph glyph-name="V" unicode="V" horiz-adv-x="1318" 
d="M1327 1434l-518 -1434h-305l-512 1434h354l311 -1012l310 1012h360z" />
    <glyph glyph-name="W" unicode="W" horiz-adv-x="2119" 
d="M1346 0l-285 901l-285 -901h-272l-506 1434h350l293 -940l291 940h256l293 -940l291 940h350l-506 -1434h-270z" />
    <glyph glyph-name="X" unicode="X" horiz-adv-x="1247" 
d="M623 971l249 463h367l-426 -717l426 -717h-367l-249 461l-250 -461h-365l426 717l-426 717h365z" />
    <glyph glyph-name="Y" unicode="Y" horiz-adv-x="1325" 
d="M1329 1434l-711 -1434h-366l264 539l-508 895h387l305 -564l263 564h366z" />
    <glyph glyph-name="Z" unicode="Z" horiz-adv-x="1294" 
d="M92 1155v279h1172l-703 -1155h680v-279h-1206l700 1155h-643z" />
    <glyph glyph-name="underscore" unicode="_" horiz-adv-x="649" 
d="M584 733v-250h-518v250h518z" />
    <glyph glyph-name="a" unicode="a" horiz-adv-x="1300" 
d="M854 987h313v-987h-313v139q-37 -71 -122 -117t-179 -47q-211 -1 -346 147t-135 372t135 370q135 147 346 148q94 0 179 -48t122 -118v141zM618 242q104 0 170 74t66 178t-66 178t-170 74t-170 -74t-65 -178q-1 -104 65 -178t170 -74z" />
    <glyph glyph-name="b" unicode="b" horiz-adv-x="1304" 
d="M446 493q0 -105 67 -178t170 -73t169 74t66 178t-66 178t-169 74t-170 -74t-67 -179zM446 0h-313v1434h313v-588q37 70 123 118t181 48q211 0 346 -148t135 -370t-135 -370t-346 -149q-94 0 -180 47t-124 117v-139z" />
    <glyph glyph-name="c" unicode="c" horiz-adv-x="1177" 
d="M381 492q0 -110 57 -181q57 -72 174 -71q143 0 185 131h313q-25 -176 -156 -287q-132 -111 -368 -111t-377 152t-141 369q0 216 141 368t383 152t371 -119t145 -295h-313q-20 147 -195 148q-106 0 -162 -73t-57 -183z" />
    <glyph glyph-name="d" unicode="d" horiz-adv-x="1300" 
d="M854 0v139q-37 -71 -122 -117t-179 -47q-211 -1 -346 147t-135 372t135 370q135 147 346 148q94 0 179 -48t122 -118v588h313v-1434h-313zM618 242q104 0 170 74t66 178t-66 178t-170 74t-170 -74t-65 -178q-1 -104 65 -178t170 -74z" />
    <glyph glyph-name="e" unicode="e" horiz-adv-x="1181" 
d="M795 598q-1 94 -57 150t-148 57q-92 0 -150 -54t-59 -153h414zM600 199q145 0 182 112h308q-23 -145 -153 -241t-335 -97q-254 1 -393 143t-139 372t138 378t374 148t378 -132t142 -319q0 -86 -10 -145h-711q12 -219 219 -219z" />
    <glyph glyph-name="f" unicode="f" horiz-adv-x="778" 
d="M522 1092v-105h232v-233h-230v-754h-313v754h-178v233h178v86q0 102 25 177t60 114q85 92 281 92q109 0 177 -26v-226q-135 33 -197 -11q-35 -24 -35 -101z" />
    <glyph glyph-name="g" unicode="g" horiz-adv-x="1296" 
d="M1169 6q0 -479 -555 -479q-252 0 -388 116t-142 281h313q5 -68 63 -117t164 -49t168 56q64 56 64 168v165q-41 -69 -124 -111t-177 -42q-213 0 -348 140t-135 362t133 369q133 146 346 147q96 0 180 -45t125 -121v141h313v-981zM619 745q-103 1 -169 -73t-65 -178
q0 -104 66 -178q67 -74 169 -74t170 72q66 72 66 178t-66 180q-68 73 -171 73z" />
    <glyph glyph-name="h" unicode="h" horiz-adv-x="1222" 
d="M133 0v1434h303v-590q90 168 320 168q182 0 268 -113q80 -98 80 -315v-584h-303v506q0 240 -174 239q-92 0 -142 -66q-49 -67 -49 -183v-496h-303z" />
    <glyph glyph-name="i" unicode="i" horiz-adv-x="579" 
d="M133 0v987h313v-987h-313zM88 1316q0 83 58 140t144 57t143 -57q59 -57 59 -140t-58 -141q-58 -59 -144 -59t-144 58t-58 142z" />
    <glyph glyph-name="j" unicode="j" horiz-adv-x="579" 
d="M446 987v-1141q0 -178 -74 -248t-201 -69q-126 0 -200 25v239q37 -6 80 -6q82 0 82 100v1100h313zM88 1316q0 83 58 140t144 57t143 -57q59 -57 59 -140t-58 -141q-58 -59 -144 -59t-144 58t-58 142z" />
    <glyph glyph-name="k" unicode="k" horiz-adv-x="1134" 
d="M446 0h-313v1434h313v-865l306 418h372l-385 -493l383 -494h-372l-304 414v-414z" />
    <glyph glyph-name="l" unicode="l" horiz-adv-x="579" 
d="M133 0v1434h313v-1434h-313z" />
    <glyph glyph-name="m" unicode="m" horiz-adv-x="1798" 
d="M1675 0h-301v532q0 213 -151 213q-166 0 -166 -249v-496h-303v535q0 211 -148 210q-170 0 -170 -256v-489h-303v987h303v-143q35 74 111 121t174 47q225 0 299 -178q39 80 121 129t186 49q208 0 284 -125q64 -105 64 -279v-608z" />
    <glyph glyph-name="n" unicode="n" 
d="M133 0v987h313v-143q88 168 324 168q190 0 277 -113q78 -96 77 -313v-586h-313v506q0 240 -174 239q-92 -1 -141 -67t-50 -182v-496h-313z" />
    <glyph glyph-name="o" unicode="o" horiz-adv-x="1226" 
d="M612 242q104 0 171 72t67 180q0 106 -67 179t-171 73t-169 -74q-65 -72 -65 -178t65 -180q65 -72 169 -72zM613 -27q-249 0 -399 151t-148 370q0 220 150 370t398 150t398 -151t150 -369t-150 -370q-150 -151 -399 -151z" />
    <glyph glyph-name="p" unicode="p" horiz-adv-x="1304" 
d="M446 987v-141q37 70 123 118t181 48q211 0 346 -148t135 -370t-135 -370t-346 -149q-94 1 -180 49t-124 117v-587h-313v1433h313zM446 494q0 -106 67 -180t170 -72q103 0 169 74t66 178t-66 178t-169 73t-170 -73t-67 -178z" />
    <glyph glyph-name="q" unicode="q" horiz-adv-x="1304" 
d="M622 745q-103 1 -169 -73t-66 -178t66 -178t169 -74t170 72q66 72 66 180q0 106 -66 179q-67 72 -170 72zM858 987h311v-1433h-311v587q-37 -69 -123 -117t-180 -49q-211 -1 -346 147t-135 372t135 370q135 147 346 148q94 0 180 -48t123 -118v141z" />
    <glyph glyph-name="r" unicode="r" horiz-adv-x="854" 
d="M446 385v-385h-313v987h313v-160q35 74 119 125t161 51t116 -16v-285q-59 14 -111 15q-285 0 -285 -332z" />
    <glyph glyph-name="s" unicode="s" horiz-adv-x="1044" 
d="M969 291q0 -166 -123 -242t-330 -76q-207 -1 -328 93t-120 264h307q0 -145 157 -146q129 0 130 92q0 50 -50 73q-28 14 -76 30l-81 27q-168 51 -225 81q-56 29 -80 57q-57 66 -58 169q0 149 116 225t322 76t315 -93q110 -93 109 -241h-309q0 129 -129 129q-51 0 -84 -23
t-33 -61q-1 -38 17 -50q18 -13 29 -21t37 -17q26 -10 45 -16q19 -7 58 -19t93 -28q221 -67 268 -164q23 -49 23 -119z" />
    <glyph glyph-name="t" unicode="t" horiz-adv-x="784" 
d="M571 -16q-85 0 -125 4t-91 23q-165 60 -165 321v422h-155v233h155v293h312v-293h225v-233h-225v-353q0 -100 34 -134q50 -50 214 -27v-240q-94 -16 -179 -16z" />
    <glyph glyph-name="u" unicode="u" 
d="M797 987h313v-987h-313v141q-88 -166 -324 -166q-190 0 -276 113q-76 94 -76 313v586h311v-506q0 -240 174 -239q94 0 143 66q48 67 48 184v495z" />
    <glyph glyph-name="v" unicode="v" horiz-adv-x="1128" 
d="M-4 987h328l239 -620l242 620h328l-447 -987h-250z" />
    <glyph glyph-name="w" unicode="w" horiz-adv-x="1644" 
d="M1024 0l-201 629l-202 -629h-254l-369 987h324l182 -588l174 588h289l174 -588l182 588h324l-369 -987h-254z" />
    <glyph glyph-name="x" unicode="x" horiz-adv-x="1052" 
d="M713 498l338 -498h-363l-162 287l-161 -287h-363l340 498l-334 489h363l155 -278l156 278h362z" />
    <glyph glyph-name="y" unicode="y" horiz-adv-x="1259" 
d="M1130 -25q0 -227 -132 -337t-374 -111q-243 0 -368 102q-135 115 -135 295h313q4 -82 58 -127t141 -45q88 0 136 46t48 157v203q-86 -166 -315 -166q-195 0 -285 119q-76 94 -76 305v571h312v-506q0 -240 174 -239q94 0 142 66t48 184v495h313v-1012z" />
    <glyph glyph-name="z" unicode="z" horiz-adv-x="983" 
d="M63 987h893l-434 -721h420v-266h-905l436 721h-410v266z" />
    <glyph glyph-name="Agrave" unicode="&#xc0;" horiz-adv-x="1351" 
d="M1343 0h-360l-55 174h-510l-56 -174h-354l512 1434h305zM846 434l-172 590l-176 -590h348z" />
    <glyph glyph-name="Aacute" unicode="&#xc1;" horiz-adv-x="1351" 
d="M1343 0h-360l-55 174h-510l-56 -174h-354l512 1434h305zM846 434l-172 590l-176 -590h348z" />
    <glyph glyph-name="Acircumflex" unicode="&#xc2;" horiz-adv-x="1351" 
d="M1343 0h-360l-55 174h-510l-56 -174h-354l512 1434h305zM846 434l-172 590l-176 -590h348z" />
    <glyph glyph-name="Atilde" unicode="&#xc3;" horiz-adv-x="1351" 
d="M1343 0h-360l-55 174h-510l-56 -174h-354l512 1434h305zM846 434l-172 590l-176 -590h348z" />
    <glyph glyph-name="Adieresis" unicode="&#xc4;" horiz-adv-x="1351" 
d="M1343 0h-360l-55 174h-510l-56 -174h-354l512 1434h305zM846 434l-172 590l-176 -590h348z" />
    <glyph glyph-name="Aring" unicode="&#xc5;" horiz-adv-x="1351" 
d="M1343 0h-360l-55 174h-510l-56 -174h-354l512 1434h305zM846 434l-172 590l-176 -590h348z" />
    <glyph glyph-name="AE" unicode="&#xc6;" horiz-adv-x="2488" 
d="M2363 1167h-542v-325h542v-260h-542v-316h542v-266h-874v1434h874v-267zM1343 0h-360l-55 174h-510l-56 -174h-354l512 1434h305zM846 434l-172 590l-176 -590h348z" />
    <glyph glyph-name="Ccedilla" unicode="&#xc7;" horiz-adv-x="1613" 
d="M836 -37q-350 0 -561 220q-209 219 -209 531t206 534q208 222 536 222t518 -166q189 -167 222 -427h-346q-25 131 -120 213t-244 81q-201 0 -318 -133q-117 -132 -117 -324t121 -322t330 -130q121 0 218 72t126 180h352q-44 -238 -236 -394t-478 -157z" />
    <glyph glyph-name="Egrave" unicode="&#xc8;" horiz-adv-x="1136" 
d="M1012 1167h-543v-325h543v-260h-543v-316h543v-266h-875v1434h875v-267z" />
    <glyph glyph-name="Eacute" unicode="&#xc9;" horiz-adv-x="1136" 
d="M1012 1167h-543v-325h543v-260h-543v-316h543v-266h-875v1434h875v-267z" />
    <glyph glyph-name="Ecircumflex" unicode="&#xca;" horiz-adv-x="1136" 
d="M1012 1167h-543v-325h543v-260h-543v-316h543v-266h-875v1434h875v-267z" />
    <glyph glyph-name="Edieresis" unicode="&#xcb;" horiz-adv-x="1136" 
d="M1012 1167h-543v-325h543v-260h-543v-316h543v-266h-875v1434h875v-267z" />
    <glyph glyph-name="Igrave" unicode="&#xcc;" horiz-adv-x="610" 
d="M137 0v1434h336v-1434h-336z" />
    <glyph glyph-name="Iacute" unicode="&#xcd;" horiz-adv-x="610" 
d="M137 0v1434h336v-1434h-336z" />
    <glyph glyph-name="Icircumflex" unicode="&#xce;" horiz-adv-x="610" 
d="M137 0v1434h336v-1434h-336z" />
    <glyph glyph-name="Idieresis" unicode="&#xcf;" horiz-adv-x="610" 
d="M137 0v1434h336v-1434h-336z" />
    <glyph glyph-name="Eth" unicode="&#xd0;" horiz-adv-x="1474" 
d="M647 1147h-178v-860h178q193 0 309 127t115 303q1 176 -115 303t-309 127zM137 1434h527q340 0 542 -213t203 -504q0 -188 -85 -349q-85 -160 -258 -264t-402 -104h-527v1434z" />
    <glyph glyph-name="Ntilde" unicode="&#xd1;" horiz-adv-x="1468" 
d="M1001 1434h330v-1434h-346l-516 922v-922h-332v1434h346l518 -934v934z" />
    <glyph glyph-name="Ograve" unicode="&#xd2;" horiz-adv-x="1648" 
d="M825 262q188 0 304 135t116 319t-116 320q-116 135 -304 135t-304 -134q-115 -134 -115 -320t115 -321q116 -134 304 -134zM1583 717q0 -309 -208 -531t-551 -223q-343 0 -551 222q-207 221 -207 531t207 532q208 222 551 222t551 -222t208 -531z" />
    <glyph glyph-name="Oacute" unicode="&#xd3;" horiz-adv-x="1648" 
d="M825 262q188 0 304 135t116 319t-116 320q-116 135 -304 135t-304 -134q-115 -134 -115 -320t115 -321q116 -134 304 -134zM1583 717q0 -309 -208 -531t-551 -223q-343 0 -551 222q-207 221 -207 531t207 532q208 222 551 222t551 -222t208 -531z" />
    <glyph glyph-name="Ocircumflex" unicode="&#xd4;" horiz-adv-x="1648" 
d="M825 262q188 0 304 135t116 319t-116 320q-116 135 -304 135t-304 -134q-115 -134 -115 -320t115 -321q116 -134 304 -134zM1583 717q0 -309 -208 -531t-551 -223q-343 0 -551 222q-207 221 -207 531t207 532q208 222 551 222t551 -222t208 -531z" />
    <glyph glyph-name="Otilde" unicode="&#xd5;" horiz-adv-x="1648" 
d="M825 262q188 0 304 135t116 319t-116 320q-116 135 -304 135t-304 -134q-115 -134 -115 -320t115 -321q116 -134 304 -134zM1583 717q0 -309 -208 -531t-551 -223q-343 0 -551 222q-207 221 -207 531t207 532q208 222 551 222t551 -222t208 -531z" />
    <glyph glyph-name="Odieresis" unicode="&#xd6;" horiz-adv-x="1648" 
d="M825 262q188 0 304 135t116 319t-116 320q-116 135 -304 135t-304 -134q-115 -134 -115 -320t115 -321q116 -134 304 -134zM1583 717q0 -309 -208 -531t-551 -223q-343 0 -551 222q-207 221 -207 531t207 532q208 222 551 222t551 -222t208 -531z" />
    <glyph glyph-name="Oslash" unicode="&#xd8;" horiz-adv-x="1648" 
d="M825 262q188 0 304 135t116 319t-116 320q-116 135 -304 135t-304 -134q-115 -134 -115 -320t115 -321q116 -134 304 -134zM1583 717q0 -309 -208 -531t-551 -223q-343 0 -551 222q-207 221 -207 531t207 532q208 222 551 222t551 -222t208 -531z" />
    <glyph glyph-name="Ugrave" unicode="&#xd9;" horiz-adv-x="1345" 
d="M115 489v945h331v-942q0 -100 64 -171t162 -71q100 0 164 71q63 71 63 171v942h332v-945q0 -227 -154 -377q-153 -150 -405 -149t-404 151t-153 375z" />
    <glyph glyph-name="Uacute" unicode="&#xda;" horiz-adv-x="1345" 
d="M115 489v945h331v-942q0 -100 64 -171t162 -71q100 0 164 71q63 71 63 171v942h332v-945q0 -227 -154 -377q-153 -150 -405 -149t-404 151t-153 375z" />
    <glyph glyph-name="Ucircumflex" unicode="&#xdb;" horiz-adv-x="1345" 
d="M115 489v945h331v-942q0 -100 64 -171t162 -71q100 0 164 71q63 71 63 171v942h332v-945q0 -227 -154 -377q-153 -150 -405 -149t-404 151t-153 375z" />
    <glyph glyph-name="Udieresis" unicode="&#xdc;" horiz-adv-x="1345" 
d="M115 489v945h331v-942q0 -100 64 -171t162 -71q100 0 164 71q63 71 63 171v942h332v-945q0 -227 -154 -377q-153 -150 -405 -149t-404 151t-153 375z" />
    <glyph glyph-name="Yacute" unicode="&#xdd;" horiz-adv-x="1325" 
d="M1329 1434l-711 -1434h-366l264 539l-508 895h387l305 -564l263 564h366z" />
    <glyph glyph-name="Thorn" unicode="&#xde;" horiz-adv-x="1300" 
d="M696 668q102 0 166 72q63 73 64 175q0 101 -64 175t-166 73h-227v-495h227zM137 0v1434h600q231 0 377 -152t146 -367t-146 -367t-377 -151h-268v-397h-332z" />
    <glyph glyph-name="germandbls" unicode="&#xdf;" horiz-adv-x="2088" 
d="M1560 -27q-206 -1 -327 93t-121 264h307q0 -145 158 -146q129 0 129 92q0 58 -77 85q-33 13 -65 23l-65 22q-166 50 -223 81q-57 29 -81 57q-58 66 -58 169q-1 149 115 225t322 76t316 -93t109 -241h-309q0 129 -129 129q-51 0 -84 -23t-33 -60t17 -51q17 -13 29 -21
t37 -17q26 -10 45 -16q19 -7 58 -19q40 -12 94 -28q221 -67 267 -164q23 -49 22 -119q0 -166 -123 -242q-124 -76 -330 -76zM969 291q0 -166 -123 -242t-330 -76q-207 -1 -328 93t-120 264h307q0 -145 157 -146q129 0 130 92q0 50 -50 73q-28 14 -76 30l-81 27
q-168 51 -225 81q-56 29 -80 57q-57 66 -58 169q0 149 116 225t322 76t315 -93q110 -93 109 -241h-309q0 129 -129 129q-51 0 -84 -23t-33 -61q-1 -38 17 -50q18 -13 29 -21t37 -17q26 -10 45 -16q19 -7 58 -19t93 -28q221 -67 268 -164q23 -49 23 -119z" />
    <glyph glyph-name="agrave" unicode="&#xe0;" horiz-adv-x="1300" 
d="M854 987h313v-987h-313v139q-37 -71 -122 -117t-179 -47q-211 -1 -346 147t-135 372t135 370q135 147 346 148q94 0 179 -48t122 -118v141zM618 242q104 0 170 74t66 178t-66 178t-170 74t-170 -74t-65 -178q-1 -104 65 -178t170 -74z" />
    <glyph glyph-name="aacute" unicode="&#xe1;" horiz-adv-x="1300" 
d="M854 987h313v-987h-313v139q-37 -71 -122 -117t-179 -47q-211 -1 -346 147t-135 372t135 370q135 147 346 148q94 0 179 -48t122 -118v141zM618 242q104 0 170 74t66 178t-66 178t-170 74t-170 -74t-65 -178q-1 -104 65 -178t170 -74z" />
    <glyph glyph-name="acircumflex" unicode="&#xe2;" horiz-adv-x="1300" 
d="M854 987h313v-987h-313v139q-37 -71 -122 -117t-179 -47q-211 -1 -346 147t-135 372t135 370q135 147 346 148q94 0 179 -48t122 -118v141zM618 242q104 0 170 74t66 178t-66 178t-170 74t-170 -74t-65 -178q-1 -104 65 -178t170 -74z" />
    <glyph glyph-name="atilde" unicode="&#xe3;" horiz-adv-x="1300" 
d="M854 987h313v-987h-313v139q-37 -71 -122 -117t-179 -47q-211 -1 -346 147t-135 372t135 370q135 147 346 148q94 0 179 -48t122 -118v141zM618 242q104 0 170 74t66 178t-66 178t-170 74t-170 -74t-65 -178q-1 -104 65 -178t170 -74z" />
    <glyph glyph-name="adieresis" unicode="&#xe4;" horiz-adv-x="1300" 
d="M854 987h313v-987h-313v139q-37 -71 -122 -117t-179 -47q-211 -1 -346 147t-135 372t135 370q135 147 346 148q94 0 179 -48t122 -118v141zM618 242q104 0 170 74t66 178t-66 178t-170 74t-170 -74t-65 -178q-1 -104 65 -178t170 -74z" />
    <glyph glyph-name="aring" unicode="&#xe5;" horiz-adv-x="1300" 
d="M854 987h313v-987h-313v139q-37 -71 -122 -117t-179 -47q-211 -1 -346 147t-135 372t135 370q135 147 346 148q94 0 179 -48t122 -118v141zM618 242q104 0 170 74t66 178t-66 178t-170 74t-170 -74t-65 -178q-1 -104 65 -178t170 -74z" />
    <glyph glyph-name="ae" unicode="&#xe6;" horiz-adv-x="2482" 
d="M1890 805q-92 0 -150 -54t-59 -153h414q0 94 -56 151q-57 56 -149 56zM1901 199q145 0 182 112h307q-23 -145 -153 -241t-334 -97q-253 1 -393 143t-140 372t138 378t374 148t378 -132t142 -319q0 -86 -10 -145h-711q12 -219 220 -219zM854 987h313v-987h-313v139
q-37 -71 -122 -117t-179 -47q-211 -1 -346 147t-135 372t135 370q135 147 346 148q94 0 179 -48t122 -118v141zM618 242q104 0 170 74t66 178t-66 178t-170 74t-170 -74t-65 -178q-1 -104 65 -178t170 -74z" />
    <glyph glyph-name="ccedilla" unicode="&#xe7;" horiz-adv-x="1177" 
d="M381 492q0 -110 57 -181q57 -72 174 -71q143 0 185 131h313q-25 -176 -156 -287q-132 -111 -368 -111t-377 152t-141 369q0 216 141 368t383 152t371 -119t145 -295h-313q-20 147 -195 148q-106 0 -162 -73t-57 -183z" />
    <glyph glyph-name="egrave" unicode="&#xe8;" horiz-adv-x="1181" 
d="M795 598q-1 94 -57 150t-148 57q-92 0 -150 -54t-59 -153h414zM600 199q145 0 182 112h308q-23 -145 -153 -241t-335 -97q-254 1 -393 143t-139 372t138 378t374 148t378 -132t142 -319q0 -86 -10 -145h-711q12 -219 219 -219z" />
    <glyph glyph-name="eacute" unicode="&#xe9;" horiz-adv-x="1181" 
d="M795 598q-1 94 -57 150t-148 57q-92 0 -150 -54t-59 -153h414zM600 199q145 0 182 112h308q-23 -145 -153 -241t-335 -97q-254 1 -393 143t-139 372t138 378t374 148t378 -132t142 -319q0 -86 -10 -145h-711q12 -219 219 -219z" />
    <glyph glyph-name="ecircumflex" unicode="&#xea;" horiz-adv-x="1181" 
d="M795 598q-1 94 -57 150t-148 57q-92 0 -150 -54t-59 -153h414zM600 199q145 0 182 112h308q-23 -145 -153 -241t-335 -97q-254 1 -393 143t-139 372t138 378t374 148t378 -132t142 -319q0 -86 -10 -145h-711q12 -219 219 -219z" />
    <glyph glyph-name="edieresis" unicode="&#xeb;" horiz-adv-x="1181" 
d="M795 598q-1 94 -57 150t-148 57q-92 0 -150 -54t-59 -153h414zM600 199q145 0 182 112h308q-23 -145 -153 -241t-335 -97q-254 1 -393 143t-139 372t138 378t374 148t378 -132t142 -319q0 -86 -10 -145h-711q12 -219 219 -219z" />
    <glyph glyph-name="igrave" unicode="&#xec;" horiz-adv-x="579" 
d="M133 0v987h313v-987h-313zM88 1316q0 83 58 140t144 57t143 -57q59 -57 59 -140t-58 -141q-58 -59 -144 -59t-144 58t-58 142z" />
    <glyph glyph-name="iacute" unicode="&#xed;" horiz-adv-x="579" 
d="M133 0v987h313v-987h-313zM88 1316q0 83 58 140t144 57t143 -57q59 -57 59 -140t-58 -141q-58 -59 -144 -59t-144 58t-58 142z" />
    <glyph glyph-name="icircumflex" unicode="&#xee;" horiz-adv-x="579" 
d="M133 0v987h313v-987h-313zM88 1316q0 83 58 140t144 57t143 -57q59 -57 59 -140t-58 -141q-58 -59 -144 -59t-144 58t-58 142z" />
    <glyph glyph-name="idieresis" unicode="&#xef;" horiz-adv-x="579" 
d="M133 0v987h313v-987h-313zM88 1316q0 83 58 140t144 57t143 -57q59 -57 59 -140t-58 -141q-58 -59 -144 -59t-144 58t-58 142z" />
    <glyph glyph-name="ntilde" unicode="&#xf1;" 
d="M133 0v987h313v-143q88 168 324 168q190 0 277 -113q78 -96 77 -313v-586h-313v506q0 240 -174 239q-92 -1 -141 -67t-50 -182v-496h-313z" />
    <glyph glyph-name="ograve" unicode="&#xf2;" horiz-adv-x="1226" 
d="M612 242q104 0 171 72t67 180q0 106 -67 179t-171 73t-169 -74q-65 -72 -65 -178t65 -180q65 -72 169 -72zM613 -27q-249 0 -399 151t-148 370q0 220 150 370t398 150t398 -151t150 -369t-150 -370q-150 -151 -399 -151z" />
    <glyph glyph-name="oacute" unicode="&#xf3;" horiz-adv-x="1226" 
d="M612 242q104 0 171 72t67 180q0 106 -67 179t-171 73t-169 -74q-65 -72 -65 -178t65 -180q65 -72 169 -72zM613 -27q-249 0 -399 151t-148 370q0 220 150 370t398 150t398 -151t150 -369t-150 -370q-150 -151 -399 -151z" />
    <glyph glyph-name="ocircumflex" unicode="&#xf4;" horiz-adv-x="1226" 
d="M612 242q104 0 171 72t67 180q0 106 -67 179t-171 73t-169 -74q-65 -72 -65 -178t65 -180q65 -72 169 -72zM613 -27q-249 0 -399 151t-148 370q0 220 150 370t398 150t398 -151t150 -369t-150 -370q-150 -151 -399 -151z" />
    <glyph glyph-name="otilde" unicode="&#xf5;" horiz-adv-x="1226" 
d="M612 242q104 0 171 72t67 180q0 106 -67 179t-171 73t-169 -74q-65 -72 -65 -178t65 -180q65 -72 169 -72zM613 -27q-249 0 -399 151t-148 370q0 220 150 370t398 150t398 -151t150 -369t-150 -370q-150 -151 -399 -151z" />
    <glyph glyph-name="odieresis" unicode="&#xf6;" horiz-adv-x="1226" 
d="M612 242q104 0 171 72t67 180q0 106 -67 179t-171 73t-169 -74q-65 -72 -65 -178t65 -180q65 -72 169 -72zM613 -27q-249 0 -399 151t-148 370q0 220 150 370t398 150t398 -151t150 -369t-150 -370q-150 -151 -399 -151z" />
    <glyph glyph-name="oslash" unicode="&#xf8;" horiz-adv-x="1226" 
d="M612 242q104 0 171 72t67 180q0 106 -67 179t-171 73t-169 -74q-65 -72 -65 -178t65 -180q65 -72 169 -72zM613 -27q-249 0 -399 151t-148 370q0 220 150 370t398 150t398 -151t150 -369t-150 -370q-150 -151 -399 -151z" />
    <glyph glyph-name="ugrave" unicode="&#xf9;" 
d="M797 987h313v-987h-313v141q-88 -166 -324 -166q-190 0 -276 113q-76 94 -76 313v586h311v-506q0 -240 174 -239q94 0 143 66q48 67 48 184v495z" />
    <glyph glyph-name="uacute" unicode="&#xfa;" 
d="M797 987h313v-987h-313v141q-88 -166 -324 -166q-190 0 -276 113q-76 94 -76 313v586h311v-506q0 -240 174 -239q94 0 143 66q48 67 48 184v495z" />
    <glyph glyph-name="ucircumflex" unicode="&#xfb;" 
d="M797 987h313v-987h-313v141q-88 -166 -324 -166q-190 0 -276 113q-76 94 -76 313v586h311v-506q0 -240 174 -239q94 0 143 66q48 67 48 184v495z" />
    <glyph glyph-name="udieresis" unicode="&#xfc;" 
d="M797 987h313v-987h-313v141q-88 -166 -324 -166q-190 0 -276 113q-76 94 -76 313v586h311v-506q0 -240 174 -239q94 0 143 66q48 67 48 184v495z" />
    <glyph glyph-name="yacute" unicode="&#xfd;" horiz-adv-x="1259" 
d="M1130 -25q0 -227 -132 -337t-374 -111q-243 0 -368 102q-135 115 -135 295h313q4 -82 58 -127t141 -45q88 0 136 46t48 157v203q-86 -166 -315 -166q-195 0 -285 119q-76 94 -76 305v571h312v-506q0 -240 174 -239q94 0 142 66t48 184v495h313v-1012z" />
    <glyph glyph-name="thorn" unicode="&#xfe;" horiz-adv-x="1304" 
d="M446 987v-141q37 70 123 118t181 48q211 0 346 -148t135 -370t-135 -370t-346 -149q-94 1 -180 49t-124 117v-587h-313v1433h313zM446 494q0 -106 67 -180t170 -72q103 0 169 74t66 178t-66 178t-169 73t-170 -73t-67 -178z" />
    <glyph glyph-name="ydieresis" unicode="&#xff;" horiz-adv-x="1259" 
d="M1130 -25q0 -227 -132 -337t-374 -111q-243 0 -368 102q-135 115 -135 295h313q4 -82 58 -127t141 -45q88 0 136 46t48 157v203q-86 -166 -315 -166q-195 0 -285 119q-76 94 -76 305v571h312v-506q0 -240 174 -239q94 0 142 66t48 184v495h313v-1012z" />
    <glyph glyph-name="Amacron" unicode="&#x100;" horiz-adv-x="1351" 
d="M1343 0h-360l-55 174h-510l-56 -174h-354l512 1434h305zM846 434l-172 590l-176 -590h348z" />
    <glyph glyph-name="amacron" unicode="&#x101;" horiz-adv-x="1300" 
d="M854 987h313v-987h-313v139q-37 -71 -122 -117t-179 -47q-211 -1 -346 147t-135 372t135 370q135 147 346 148q94 0 179 -48t122 -118v141zM618 242q104 0 170 74t66 178t-66 178t-170 74t-170 -74t-65 -178q-1 -104 65 -178t170 -74z" />
    <glyph glyph-name="Abreve" unicode="&#x102;" horiz-adv-x="1351" 
d="M1343 0h-360l-55 174h-510l-56 -174h-354l512 1434h305zM846 434l-172 590l-176 -590h348z" />
    <glyph glyph-name="abreve" unicode="&#x103;" horiz-adv-x="1300" 
d="M854 987h313v-987h-313v139q-37 -71 -122 -117t-179 -47q-211 -1 -346 147t-135 372t135 370q135 147 346 148q94 0 179 -48t122 -118v141zM618 242q104 0 170 74t66 178t-66 178t-170 74t-170 -74t-65 -178q-1 -104 65 -178t170 -74z" />
    <glyph glyph-name="Aogonek" unicode="&#x104;" horiz-adv-x="1351" 
d="M1343 0h-360l-55 174h-510l-56 -174h-354l512 1434h305zM846 434l-172 590l-176 -590h348z" />
    <glyph glyph-name="aogonek" unicode="&#x105;" horiz-adv-x="1300" 
d="M854 987h313v-987h-313v139q-37 -71 -122 -117t-179 -47q-211 -1 -346 147t-135 372t135 370q135 147 346 148q94 0 179 -48t122 -118v141zM618 242q104 0 170 74t66 178t-66 178t-170 74t-170 -74t-65 -178q-1 -104 65 -178t170 -74z" />
    <glyph glyph-name="Cacute" unicode="&#x106;" horiz-adv-x="1613" 
d="M836 -37q-350 0 -561 220q-209 219 -209 531t206 534q208 222 536 222t518 -166q189 -167 222 -427h-346q-25 131 -120 213t-244 81q-201 0 -318 -133q-117 -132 -117 -324t121 -322t330 -130q121 0 218 72t126 180h352q-44 -238 -236 -394t-478 -157z" />
    <glyph glyph-name="cacute" unicode="&#x107;" horiz-adv-x="1177" 
d="M381 492q0 -110 57 -181q57 -72 174 -71q143 0 185 131h313q-25 -176 -156 -287q-132 -111 -368 -111t-377 152t-141 369q0 216 141 368t383 152t371 -119t145 -295h-313q-20 147 -195 148q-106 0 -162 -73t-57 -183z" />
    <glyph glyph-name="Ccircumflex" unicode="&#x108;" horiz-adv-x="1613" 
d="M836 -37q-350 0 -561 220q-209 219 -209 531t206 534q208 222 536 222t518 -166q189 -167 222 -427h-346q-25 131 -120 213t-244 81q-201 0 -318 -133q-117 -132 -117 -324t121 -322t330 -130q121 0 218 72t126 180h352q-44 -238 -236 -394t-478 -157z" />
    <glyph glyph-name="ccircumflex" unicode="&#x109;" horiz-adv-x="1177" 
d="M381 492q0 -110 57 -181q57 -72 174 -71q143 0 185 131h313q-25 -176 -156 -287q-132 -111 -368 -111t-377 152t-141 369q0 216 141 368t383 152t371 -119t145 -295h-313q-20 147 -195 148q-106 0 -162 -73t-57 -183z" />
    <glyph glyph-name="Cdotaccent" unicode="&#x10a;" horiz-adv-x="1613" 
d="M836 -37q-350 0 -561 220q-209 219 -209 531t206 534q208 222 536 222t518 -166q189 -167 222 -427h-346q-25 131 -120 213t-244 81q-201 0 -318 -133q-117 -132 -117 -324t121 -322t330 -130q121 0 218 72t126 180h352q-44 -238 -236 -394t-478 -157z" />
    <glyph glyph-name="cdotaccent" unicode="&#x10b;" horiz-adv-x="1177" 
d="M381 492q0 -110 57 -181q57 -72 174 -71q143 0 185 131h313q-25 -176 -156 -287q-132 -111 -368 -111t-377 152t-141 369q0 216 141 368t383 152t371 -119t145 -295h-313q-20 147 -195 148q-106 0 -162 -73t-57 -183z" />
    <glyph glyph-name="Ccaron" unicode="&#x10c;" horiz-adv-x="1613" 
d="M836 -37q-350 0 -561 220q-209 219 -209 531t206 534q208 222 536 222t518 -166q189 -167 222 -427h-346q-25 131 -120 213t-244 81q-201 0 -318 -133q-117 -132 -117 -324t121 -322t330 -130q121 0 218 72t126 180h352q-44 -238 -236 -394t-478 -157z" />
    <glyph glyph-name="ccaron" unicode="&#x10d;" horiz-adv-x="1177" 
d="M381 492q0 -110 57 -181q57 -72 174 -71q143 0 185 131h313q-25 -176 -156 -287q-132 -111 -368 -111t-377 152t-141 369q0 216 141 368t383 152t371 -119t145 -295h-313q-20 147 -195 148q-106 0 -162 -73t-57 -183z" />
    <glyph glyph-name="Dcaron" unicode="&#x10e;" horiz-adv-x="1474" 
d="M647 1147h-178v-860h178q193 0 309 127t115 303q1 176 -115 303t-309 127zM137 1434h527q340 0 542 -213t203 -504q0 -188 -85 -349q-85 -160 -258 -264t-402 -104h-527v1434z" />
    <glyph glyph-name="dcaron" unicode="&#x10f;" horiz-adv-x="1300" 
d="M854 0v139q-37 -71 -122 -117t-179 -47q-211 -1 -346 147t-135 372t135 370q135 147 346 148q94 0 179 -48t122 -118v588h313v-1434h-313zM618 242q104 0 170 74t66 178t-66 178t-170 74t-170 -74t-65 -178q-1 -104 65 -178t170 -74z" />
    <glyph glyph-name="Dcroat" unicode="&#x110;" horiz-adv-x="1474" 
d="M647 1147h-178v-860h178q193 0 309 127t115 303q1 176 -115 303t-309 127zM137 1434h527q340 0 542 -213t203 -504q0 -188 -85 -349q-85 -160 -258 -264t-402 -104h-527v1434z" />
    <glyph glyph-name="dcroat" unicode="&#x111;" horiz-adv-x="1300" 
d="M854 0v139q-37 -71 -122 -117t-179 -47q-211 -1 -346 147t-135 372t135 370q135 147 346 148q94 0 179 -48t122 -118v588h313v-1434h-313zM618 242q104 0 170 74t66 178t-66 178t-170 74t-170 -74t-65 -178q-1 -104 65 -178t170 -74z" />
    <glyph glyph-name="Emacron" unicode="&#x112;" horiz-adv-x="1136" 
d="M1012 1167h-543v-325h543v-260h-543v-316h543v-266h-875v1434h875v-267z" />
    <glyph glyph-name="emacron" unicode="&#x113;" horiz-adv-x="1181" 
d="M795 598q-1 94 -57 150t-148 57q-92 0 -150 -54t-59 -153h414zM600 199q145 0 182 112h308q-23 -145 -153 -241t-335 -97q-254 1 -393 143t-139 372t138 378t374 148t378 -132t142 -319q0 -86 -10 -145h-711q12 -219 219 -219z" />
    <glyph glyph-name="Ebreve" unicode="&#x114;" horiz-adv-x="1136" 
d="M1012 1167h-543v-325h543v-260h-543v-316h543v-266h-875v1434h875v-267z" />
    <glyph glyph-name="ebreve" unicode="&#x115;" horiz-adv-x="1181" 
d="M795 598q-1 94 -57 150t-148 57q-92 0 -150 -54t-59 -153h414zM600 199q145 0 182 112h308q-23 -145 -153 -241t-335 -97q-254 1 -393 143t-139 372t138 378t374 148t378 -132t142 -319q0 -86 -10 -145h-711q12 -219 219 -219z" />
    <glyph glyph-name="Edotaccent" unicode="&#x116;" horiz-adv-x="1136" 
d="M1012 1167h-543v-325h543v-260h-543v-316h543v-266h-875v1434h875v-267z" />
    <glyph glyph-name="edotaccent" unicode="&#x117;" horiz-adv-x="1181" 
d="M795 598q-1 94 -57 150t-148 57q-92 0 -150 -54t-59 -153h414zM600 199q145 0 182 112h308q-23 -145 -153 -241t-335 -97q-254 1 -393 143t-139 372t138 378t374 148t378 -132t142 -319q0 -86 -10 -145h-711q12 -219 219 -219z" />
    <glyph glyph-name="Eogonek" unicode="&#x118;" horiz-adv-x="1136" 
d="M1012 1167h-543v-325h543v-260h-543v-316h543v-266h-875v1434h875v-267z" />
    <glyph glyph-name="eogonek" unicode="&#x119;" horiz-adv-x="1181" 
d="M795 598q-1 94 -57 150t-148 57q-92 0 -150 -54t-59 -153h414zM600 199q145 0 182 112h308q-23 -145 -153 -241t-335 -97q-254 1 -393 143t-139 372t138 378t374 148t378 -132t142 -319q0 -86 -10 -145h-711q12 -219 219 -219z" />
    <glyph glyph-name="Ecaron" unicode="&#x11a;" horiz-adv-x="1136" 
d="M1012 1167h-543v-325h543v-260h-543v-316h543v-266h-875v1434h875v-267z" />
    <glyph glyph-name="ecaron" unicode="&#x11b;" horiz-adv-x="1181" 
d="M795 598q-1 94 -57 150t-148 57q-92 0 -150 -54t-59 -153h414zM600 199q145 0 182 112h308q-23 -145 -153 -241t-335 -97q-254 1 -393 143t-139 372t138 378t374 148t378 -132t142 -319q0 -86 -10 -145h-711q12 -219 219 -219z" />
    <glyph glyph-name="Gcircumflex" unicode="&#x11c;" horiz-adv-x="1710" 
d="M932 510v248h743v-248h-147q-44 -252 -228 -399t-483 -148q-231 -1 -405 105t-260 275t-86 374q0 307 206 530q207 223 545 223q275 0 459 -145t203 -356h-355q-16 90 -100 152t-209 63q-193 0 -301 -137t-108 -336t112 -333t326 -134q143 0 233 76t109 190h-254z" />
    <glyph glyph-name="gcircumflex" unicode="&#x11d;" horiz-adv-x="1296" 
d="M1169 6q0 -479 -555 -479q-252 0 -388 116t-142 281h313q5 -68 63 -117t164 -49t168 56q64 56 64 168v165q-41 -69 -124 -111t-177 -42q-213 0 -348 140t-135 362t133 369q133 146 346 147q96 0 180 -45t125 -121v141h313v-981zM619 745q-103 1 -169 -73t-65 -178
q0 -104 66 -178q67 -74 169 -74t170 72q66 72 66 178t-66 180q-68 73 -171 73z" />
    <glyph glyph-name="Gbreve" unicode="&#x11e;" horiz-adv-x="1710" 
d="M932 510v248h743v-248h-147q-44 -252 -228 -399t-483 -148q-231 -1 -405 105t-260 275t-86 374q0 307 206 530q207 223 545 223q275 0 459 -145t203 -356h-355q-16 90 -100 152t-209 63q-193 0 -301 -137t-108 -336t112 -333t326 -134q143 0 233 76t109 190h-254z" />
    <glyph glyph-name="gbreve" unicode="&#x11f;" horiz-adv-x="1296" 
d="M1169 6q0 -479 -555 -479q-252 0 -388 116t-142 281h313q5 -68 63 -117t164 -49t168 56q64 56 64 168v165q-41 -69 -124 -111t-177 -42q-213 0 -348 140t-135 362t133 369q133 146 346 147q96 0 180 -45t125 -121v141h313v-981zM619 745q-103 1 -169 -73t-65 -178
q0 -104 66 -178q67 -74 169 -74t170 72q66 72 66 178t-66 180q-68 73 -171 73z" />
    <glyph glyph-name="Gdotaccent" unicode="&#x120;" horiz-adv-x="1710" 
d="M932 510v248h743v-248h-147q-44 -252 -228 -399t-483 -148q-231 -1 -405 105t-260 275t-86 374q0 307 206 530q207 223 545 223q275 0 459 -145t203 -356h-355q-16 90 -100 152t-209 63q-193 0 -301 -137t-108 -336t112 -333t326 -134q143 0 233 76t109 190h-254z" />
    <glyph glyph-name="gdotaccent" unicode="&#x121;" horiz-adv-x="1296" 
d="M1169 6q0 -479 -555 -479q-252 0 -388 116t-142 281h313q5 -68 63 -117t164 -49t168 56q64 56 64 168v165q-41 -69 -124 -111t-177 -42q-213 0 -348 140t-135 362t133 369q133 146 346 147q96 0 180 -45t125 -121v141h313v-981zM619 745q-103 1 -169 -73t-65 -178
q0 -104 66 -178q67 -74 169 -74t170 72q66 72 66 178t-66 180q-68 73 -171 73z" />
    <glyph glyph-name="Gcommaaccent" unicode="&#x122;" horiz-adv-x="1710" 
d="M932 510v248h743v-248h-147q-44 -252 -228 -399t-483 -148q-231 -1 -405 105t-260 275t-86 374q0 307 206 530q207 223 545 223q275 0 459 -145t203 -356h-355q-16 90 -100 152t-209 63q-193 0 -301 -137t-108 -336t112 -333t326 -134q143 0 233 76t109 190h-254z" />
    <glyph glyph-name="gcommaaccent" unicode="&#x123;" horiz-adv-x="1296" 
d="M1169 6q0 -479 -555 -479q-252 0 -388 116t-142 281h313q5 -68 63 -117t164 -49t168 56q64 56 64 168v165q-41 -69 -124 -111t-177 -42q-213 0 -348 140t-135 362t133 369q133 146 346 147q96 0 180 -45t125 -121v141h313v-981zM619 745q-103 1 -169 -73t-65 -178
q0 -104 66 -178q67 -74 169 -74t170 72q66 72 66 178t-66 180q-68 73 -171 73z" />
    <glyph glyph-name="Hcircumflex" unicode="&#x124;" horiz-adv-x="1431" 
d="M965 0v569h-496v-569h-332v1434h332v-580h496v580h329v-1434h-329z" />
    <glyph glyph-name="hcircumflex" unicode="&#x125;" horiz-adv-x="1222" 
d="M133 0v1434h303v-590q90 168 320 168q182 0 268 -113q80 -98 80 -315v-584h-303v506q0 240 -174 239q-92 0 -142 -66q-49 -67 -49 -183v-496h-303z" />
    <glyph glyph-name="Hbar" unicode="&#x126;" horiz-adv-x="1431" 
d="M965 0v569h-496v-569h-332v1434h332v-580h496v580h329v-1434h-329z" />
    <glyph glyph-name="hbar" unicode="&#x127;" horiz-adv-x="1222" 
d="M133 0v1434h303v-590q90 168 320 168q182 0 268 -113q80 -98 80 -315v-584h-303v506q0 240 -174 239q-92 0 -142 -66q-49 -67 -49 -183v-496h-303z" />
    <glyph glyph-name="Itilde" unicode="&#x128;" horiz-adv-x="610" 
d="M137 0v1434h336v-1434h-336z" />
    <glyph glyph-name="itilde" unicode="&#x129;" horiz-adv-x="579" 
d="M133 0v987h313v-987h-313zM88 1316q0 83 58 140t144 57t143 -57q59 -57 59 -140t-58 -141q-58 -59 -144 -59t-144 58t-58 142z" />
    <glyph glyph-name="Imacron" unicode="&#x12a;" horiz-adv-x="610" 
d="M137 0v1434h336v-1434h-336z" />
    <glyph glyph-name="imacron" unicode="&#x12b;" horiz-adv-x="579" 
d="M133 0v987h313v-987h-313zM88 1316q0 83 58 140t144 57t143 -57q59 -57 59 -140t-58 -141q-58 -59 -144 -59t-144 58t-58 142z" />
    <glyph glyph-name="Ibreve" unicode="&#x12c;" horiz-adv-x="610" 
d="M137 0v1434h336v-1434h-336z" />
    <glyph glyph-name="ibreve" unicode="&#x12d;" horiz-adv-x="579" 
d="M133 0v987h313v-987h-313zM88 1316q0 83 58 140t144 57t143 -57q59 -57 59 -140t-58 -141q-58 -59 -144 -59t-144 58t-58 142z" />
    <glyph glyph-name="Iogonek" unicode="&#x12e;" horiz-adv-x="610" 
d="M137 0v1434h336v-1434h-336z" />
    <glyph glyph-name="iogonek" unicode="&#x12f;" horiz-adv-x="579" 
d="M133 0v987h313v-987h-313zM88 1316q0 83 58 140t144 57t143 -57q59 -57 59 -140t-58 -141q-58 -59 -144 -59t-144 58t-58 142z" />
    <glyph glyph-name="Idotaccent" unicode="&#x130;" horiz-adv-x="610" 
d="M137 0v1434h336v-1434h-336z" />
    <glyph glyph-name="dotlessi" unicode="&#x131;" horiz-adv-x="579" 
d="M133 0v987h313v-987h-313zM88 1316q0 83 58 140t144 57t143 -57q59 -57 59 -140t-58 -141q-58 -59 -144 -59t-144 58t-58 142z" />
    <glyph glyph-name="IJ" unicode="&#x132;" horiz-adv-x="1804" 
d="M1681 1434v-940q0 -254 -138 -392t-387 -137t-385 149t-136 382h332q0 -111 49 -179q49 -67 142 -67t144 64q50 65 50 180v940h329zM137 0v1434h336v-1434h-336z" />
    <glyph glyph-name="ij" unicode="&#x133;" horiz-adv-x="1159" 
d="M1026 987v-1141q0 -178 -75 -248t-201 -69q-126 0 -199 25v239q37 -6 80 -6q82 0 82 100v1100h313zM668 1316q0 83 58 140t143 57t143 -57t59 -140q0 -83 -58 -141q-57 -59 -143 -59t-144 58t-58 142zM133 0v987h313v-987h-313zM88 1316q0 83 58 140t144 57t143 -57
q59 -57 59 -140t-58 -141q-58 -59 -144 -59t-144 58t-58 142z" />
    <glyph glyph-name="Jcircumflex" unicode="&#x134;" horiz-adv-x="1193" 
d="M1071 1434v-940q0 -254 -138 -392t-387 -137t-385 149t-136 382h331q0 -111 50 -179q50 -67 142 -67q93 0 143 64t50 180v940h330z" />
    <glyph glyph-name="jcircumflex" unicode="&#x135;" horiz-adv-x="579" 
d="M446 987v-1141q0 -178 -74 -248t-201 -69q-126 0 -200 25v239q37 -6 80 -6q82 0 82 100v1100h313zM88 1316q0 83 58 140t144 57t143 -57q59 -57 59 -140t-58 -141q-58 -59 -144 -59t-144 58t-58 142z" />
    <glyph glyph-name="Kcommaaccent" unicode="&#x136;" horiz-adv-x="1349" 
d="M469 0h-332v1434h332v-609l463 609h399l-567 -717l567 -717h-399l-463 606v-606z" />
    <glyph glyph-name="kcommaaccent" unicode="&#x137;" horiz-adv-x="1134" 
d="M446 0h-313v1434h313v-865l306 418h372l-385 -493l383 -494h-372l-304 414v-414z" />
    <glyph glyph-name="kgreenlandic" unicode="&#x138;" horiz-adv-x="1134" 
d="M446 0h-313v1434h313v-865l306 418h372l-385 -493l383 -494h-372l-304 414v-414z" />
    <glyph glyph-name="Lacute" unicode="&#x139;" horiz-adv-x="927" 
d="M469 287h408v-287h-740v1434h332v-1147z" />
    <glyph glyph-name="lacute" unicode="&#x13a;" horiz-adv-x="579" 
d="M133 0v1434h313v-1434h-313z" />
    <glyph glyph-name="Lcommaaccent" unicode="&#x13b;" horiz-adv-x="927" 
d="M469 287h408v-287h-740v1434h332v-1147z" />
    <glyph glyph-name="lcommaaccent" unicode="&#x13c;" horiz-adv-x="579" 
d="M133 0v1434h313v-1434h-313z" />
    <glyph glyph-name="Lcaron" unicode="&#x13d;" horiz-adv-x="927" 
d="M469 287h408v-287h-740v1434h332v-1147z" />
    <glyph glyph-name="lcaron" unicode="&#x13e;" horiz-adv-x="579" 
d="M133 0v1434h313v-1434h-313z" />
    <glyph glyph-name="Ldot" unicode="&#x13f;" horiz-adv-x="927" 
d="M469 287h408v-287h-740v1434h332v-1147z" />
    <glyph glyph-name="ldot" unicode="&#x140;" horiz-adv-x="579" 
d="M133 0v1434h313v-1434h-313z" />
    <glyph glyph-name="Lslash" unicode="&#x141;" horiz-adv-x="927" 
d="M469 287h408v-287h-740v1434h332v-1147z" />
    <glyph glyph-name="lslash" unicode="&#x142;" horiz-adv-x="579" 
d="M133 0v1434h313v-1434h-313z" />
    <glyph glyph-name="Nacute" unicode="&#x143;" horiz-adv-x="1468" 
d="M1001 1434h330v-1434h-346l-516 922v-922h-332v1434h346l518 -934v934z" />
    <glyph glyph-name="nacute" unicode="&#x144;" 
d="M133 0v987h313v-143q88 168 324 168q190 0 277 -113q78 -96 77 -313v-586h-313v506q0 240 -174 239q-92 -1 -141 -67t-50 -182v-496h-313z" />
    <glyph glyph-name="Ncommaaccent" unicode="&#x145;" horiz-adv-x="1468" 
d="M1001 1434h330v-1434h-346l-516 922v-922h-332v1434h346l518 -934v934z" />
    <glyph glyph-name="ncommaaccent" unicode="&#x146;" 
d="M133 0v987h313v-143q88 168 324 168q190 0 277 -113q78 -96 77 -313v-586h-313v506q0 240 -174 239q-92 -1 -141 -67t-50 -182v-496h-313z" />
    <glyph glyph-name="Ncaron" unicode="&#x147;" horiz-adv-x="1468" 
d="M1001 1434h330v-1434h-346l-516 922v-922h-332v1434h346l518 -934v934z" />
    <glyph glyph-name="ncaron" unicode="&#x148;" 
d="M133 0v987h313v-143q88 168 324 168q190 0 277 -113q78 -96 77 -313v-586h-313v506q0 240 -174 239q-92 -1 -141 -67t-50 -182v-496h-313z" />
    <glyph glyph-name="napostrophe" unicode="&#x149;" 
d="M133 0v987h313v-143q88 168 324 168q190 0 277 -113q78 -96 77 -313v-586h-313v506q0 240 -174 239q-92 -1 -141 -67t-50 -182v-496h-313z" />
    <glyph glyph-name="Eng" unicode="&#x14a;" horiz-adv-x="1468" 
d="M1001 1434h330v-1434h-346l-516 922v-922h-332v1434h346l518 -934v934z" />
    <glyph glyph-name="eng" unicode="&#x14b;" 
d="M133 0v987h313v-143q88 168 324 168q190 0 277 -113q78 -96 77 -313v-586h-313v506q0 240 -174 239q-92 -1 -141 -67t-50 -182v-496h-313z" />
    <glyph glyph-name="Omacron" unicode="&#x14c;" horiz-adv-x="1648" 
d="M825 262q188 0 304 135t116 319t-116 320q-116 135 -304 135t-304 -134q-115 -134 -115 -320t115 -321q116 -134 304 -134zM1583 717q0 -309 -208 -531t-551 -223q-343 0 -551 222q-207 221 -207 531t207 532q208 222 551 222t551 -222t208 -531z" />
    <glyph glyph-name="omacron" unicode="&#x14d;" horiz-adv-x="1226" 
d="M612 242q104 0 171 72t67 180q0 106 -67 179t-171 73t-169 -74q-65 -72 -65 -178t65 -180q65 -72 169 -72zM613 -27q-249 0 -399 151t-148 370q0 220 150 370t398 150t398 -151t150 -369t-150 -370q-150 -151 -399 -151z" />
    <glyph glyph-name="Obreve" unicode="&#x14e;" horiz-adv-x="1648" 
d="M825 262q188 0 304 135t116 319t-116 320q-116 135 -304 135t-304 -134q-115 -134 -115 -320t115 -321q116 -134 304 -134zM1583 717q0 -309 -208 -531t-551 -223q-343 0 -551 222q-207 221 -207 531t207 532q208 222 551 222t551 -222t208 -531z" />
    <glyph glyph-name="obreve" unicode="&#x14f;" horiz-adv-x="1226" 
d="M612 242q104 0 171 72t67 180q0 106 -67 179t-171 73t-169 -74q-65 -72 -65 -178t65 -180q65 -72 169 -72zM613 -27q-249 0 -399 151t-148 370q0 220 150 370t398 150t398 -151t150 -369t-150 -370q-150 -151 -399 -151z" />
    <glyph glyph-name="Ohungarumlaut" unicode="&#x150;" horiz-adv-x="1648" 
d="M825 262q188 0 304 135t116 319t-116 320q-116 135 -304 135t-304 -134q-115 -134 -115 -320t115 -321q116 -134 304 -134zM1583 717q0 -309 -208 -531t-551 -223q-343 0 -551 222q-207 221 -207 531t207 532q208 222 551 222t551 -222t208 -531z" />
    <glyph glyph-name="ohungarumlaut" unicode="&#x151;" horiz-adv-x="1226" 
d="M612 242q104 0 171 72t67 180q0 106 -67 179t-171 73t-169 -74q-65 -72 -65 -178t65 -180q65 -72 169 -72zM613 -27q-249 0 -399 151t-148 370q0 220 150 370t398 150t398 -151t150 -369t-150 -370q-150 -151 -399 -151z" />
    <glyph glyph-name="OE" unicode="&#x152;" horiz-adv-x="2785" 
d="M2660 1167h-542v-325h542v-260h-542v-316h542v-266h-874v1434h874v-267zM825 262q188 0 304 135t116 319t-116 320q-116 135 -304 135t-304 -134q-115 -134 -115 -320t115 -321q116 -134 304 -134zM1583 717q0 -309 -208 -531t-551 -223q-343 0 -551 222
q-207 221 -207 531t207 532q208 222 551 222t551 -222t208 -531z" />
    <glyph glyph-name="oe" unicode="&#x153;" horiz-adv-x="2408" 
d="M2021 598q0 94 -56 150t-148 57q-93 0 -151 -54t-58 -153h413zM1827 199q145 0 182 112h307q-22 -145 -152 -241t-335 -97q-254 1 -393 143q-140 142 -140 372t138 378t376 148q236 0 377 -132t142 -319q-1 -86 -11 -145h-710q12 -219 219 -219zM612 242q104 0 171 72
t67 180q0 106 -67 179t-171 73t-169 -74q-65 -72 -65 -178t65 -180q65 -72 169 -72zM613 -27q-249 0 -399 151t-148 370q0 220 150 370t398 150t398 -151t150 -369t-150 -370q-150 -151 -399 -151z" />
    <glyph glyph-name="Racute" unicode="&#x154;" horiz-adv-x="1339" 
d="M137 0v1434h602q231 0 377 -152t146 -367q0 -151 -76 -275t-209 -187l287 -453h-385l-254 397h-156v-397h-332zM696 668q102 0 166 72q63 73 64 175q0 101 -64 175t-166 73h-227v-495h227z" />
    <glyph glyph-name="racute" unicode="&#x155;" horiz-adv-x="854" 
d="M446 385v-385h-313v987h313v-160q35 74 119 125t161 51t116 -16v-285q-59 14 -111 15q-285 0 -285 -332z" />
    <glyph glyph-name="Rcommaaccent" unicode="&#x156;" horiz-adv-x="1339" 
d="M137 0v1434h602q231 0 377 -152t146 -367q0 -151 -76 -275t-209 -187l287 -453h-385l-254 397h-156v-397h-332zM696 668q102 0 166 72q63 73 64 175q0 101 -64 175t-166 73h-227v-495h227z" />
    <glyph glyph-name="rcommaaccent" unicode="&#x157;" horiz-adv-x="854" 
d="M446 385v-385h-313v987h313v-160q35 74 119 125t161 51t116 -16v-285q-59 14 -111 15q-285 0 -285 -332z" />
    <glyph glyph-name="Rcaron" unicode="&#x158;" horiz-adv-x="1339" 
d="M137 0v1434h602q231 0 377 -152t146 -367q0 -151 -76 -275t-209 -187l287 -453h-385l-254 397h-156v-397h-332zM696 668q102 0 166 72q63 73 64 175q0 101 -64 175t-166 73h-227v-495h227z" />
    <glyph glyph-name="rcaron" unicode="&#x159;" horiz-adv-x="854" 
d="M446 385v-385h-313v987h313v-160q35 74 119 125t161 51t116 -16v-285q-59 14 -111 15q-285 0 -285 -332z" />
    <glyph glyph-name="Sacute" unicode="&#x15a;" horiz-adv-x="1241" 
d="M78 475h332q0 -115 63 -181t155 -67q92 0 146 47q53 47 53 121q0 109 -133 165q-32 13 -112 43q-80 29 -132 51t-127 65t-112 86q-94 109 -92 262q0 188 147 296q147 107 374 107q228 0 360 -131t133 -325h-332q0 96 -46 151t-126 55t-130 -38q-50 -39 -50 -107
q0 -67 52 -111t136 -73t161 -57t133 -63q132 -84 162 -135q64 -107 64 -214q0 -217 -148 -338q-149 -121 -389 -121t-391 136t-151 376z" />
    <glyph glyph-name="sacute" unicode="&#x15b;" horiz-adv-x="1044" 
d="M969 291q0 -166 -123 -242t-330 -76q-207 -1 -328 93t-120 264h307q0 -145 157 -146q129 0 130 92q0 50 -50 73q-28 14 -76 30l-81 27q-168 51 -225 81q-56 29 -80 57q-57 66 -58 169q0 149 116 225t322 76t315 -93q110 -93 109 -241h-309q0 129 -129 129q-51 0 -84 -23
t-33 -61q-1 -38 17 -50q18 -13 29 -21t37 -17q26 -10 45 -16q19 -7 58 -19t93 -28q221 -67 268 -164q23 -49 23 -119z" />
    <glyph glyph-name="Scircumflex" unicode="&#x15c;" horiz-adv-x="1241" 
d="M78 475h332q0 -115 63 -181t155 -67q92 0 146 47q53 47 53 121q0 109 -133 165q-32 13 -112 43q-80 29 -132 51t-127 65t-112 86q-94 109 -92 262q0 188 147 296q147 107 374 107q228 0 360 -131t133 -325h-332q0 96 -46 151t-126 55t-130 -38q-50 -39 -50 -107
q0 -67 52 -111t136 -73t161 -57t133 -63q132 -84 162 -135q64 -107 64 -214q0 -217 -148 -338q-149 -121 -389 -121t-391 136t-151 376z" />
    <glyph glyph-name="scircumflex" unicode="&#x15d;" horiz-adv-x="1044" 
d="M969 291q0 -166 -123 -242t-330 -76q-207 -1 -328 93t-120 264h307q0 -145 157 -146q129 0 130 92q0 50 -50 73q-28 14 -76 30l-81 27q-168 51 -225 81q-56 29 -80 57q-57 66 -58 169q0 149 116 225t322 76t315 -93q110 -93 109 -241h-309q0 129 -129 129q-51 0 -84 -23
t-33 -61q-1 -38 17 -50q18 -13 29 -21t37 -17q26 -10 45 -16q19 -7 58 -19t93 -28q221 -67 268 -164q23 -49 23 -119z" />
    <glyph glyph-name="Scedilla" unicode="&#x15e;" horiz-adv-x="1241" 
d="M78 475h332q0 -115 63 -181t155 -67q92 0 146 47q53 47 53 121q0 109 -133 165q-32 13 -112 43q-80 29 -132 51t-127 65t-112 86q-94 109 -92 262q0 188 147 296q147 107 374 107q228 0 360 -131t133 -325h-332q0 96 -46 151t-126 55t-130 -38q-50 -39 -50 -107
q0 -67 52 -111t136 -73t161 -57t133 -63q132 -84 162 -135q64 -107 64 -214q0 -217 -148 -338q-149 -121 -389 -121t-391 136t-151 376z" />
    <glyph glyph-name="scedilla" unicode="&#x15f;" horiz-adv-x="1044" 
d="M969 291q0 -166 -123 -242t-330 -76q-207 -1 -328 93t-120 264h307q0 -145 157 -146q129 0 130 92q0 50 -50 73q-28 14 -76 30l-81 27q-168 51 -225 81q-56 29 -80 57q-57 66 -58 169q0 149 116 225t322 76t315 -93q110 -93 109 -241h-309q0 129 -129 129q-51 0 -84 -23
t-33 -61q-1 -38 17 -50q18 -13 29 -21t37 -17q26 -10 45 -16q19 -7 58 -19t93 -28q221 -67 268 -164q23 -49 23 -119z" />
    <glyph glyph-name="Scaron" unicode="&#x160;" horiz-adv-x="1241" 
d="M78 475h332q0 -115 63 -181t155 -67q92 0 146 47q53 47 53 121q0 109 -133 165q-32 13 -112 43q-80 29 -132 51t-127 65t-112 86q-94 109 -92 262q0 188 147 296q147 107 374 107q228 0 360 -131t133 -325h-332q0 96 -46 151t-126 55t-130 -38q-50 -39 -50 -107
q0 -67 52 -111t136 -73t161 -57t133 -63q132 -84 162 -135q64 -107 64 -214q0 -217 -148 -338q-149 -121 -389 -121t-391 136t-151 376z" />
    <glyph glyph-name="scaron" unicode="&#x161;" horiz-adv-x="1044" 
d="M969 291q0 -166 -123 -242t-330 -76q-207 -1 -328 93t-120 264h307q0 -145 157 -146q129 0 130 92q0 50 -50 73q-28 14 -76 30l-81 27q-168 51 -225 81q-56 29 -80 57q-57 66 -58 169q0 149 116 225t322 76t315 -93q110 -93 109 -241h-309q0 129 -129 129q-51 0 -84 -23
t-33 -61q-1 -38 17 -50q18 -13 29 -21t37 -17q26 -10 45 -16q19 -7 58 -19t93 -28q221 -67 268 -164q23 -49 23 -119z" />
    <glyph glyph-name="Tcommaaccent" unicode="&#x162;" horiz-adv-x="1042" 
d="M354 0v1147h-323v287h981v-287h-326v-1147h-332z" />
    <glyph glyph-name="tcommaaccent" unicode="&#x163;" horiz-adv-x="784" 
d="M571 -16q-85 0 -125 4t-91 23q-165 60 -165 321v422h-155v233h155v293h312v-293h225v-233h-225v-353q0 -100 34 -134q50 -50 214 -27v-240q-94 -16 -179 -16z" />
    <glyph glyph-name="Tcaron" unicode="&#x164;" horiz-adv-x="1042" 
d="M354 0v1147h-323v287h981v-287h-326v-1147h-332z" />
    <glyph glyph-name="tcaron" unicode="&#x165;" horiz-adv-x="784" 
d="M571 -16q-85 0 -125 4t-91 23q-165 60 -165 321v422h-155v233h155v293h312v-293h225v-233h-225v-353q0 -100 34 -134q50 -50 214 -27v-240q-94 -16 -179 -16z" />
    <glyph glyph-name="Tbar" unicode="&#x166;" horiz-adv-x="1042" 
d="M354 0v1147h-323v287h981v-287h-326v-1147h-332z" />
    <glyph glyph-name="tbar" unicode="&#x167;" horiz-adv-x="784" 
d="M571 -16q-85 0 -125 4t-91 23q-165 60 -165 321v422h-155v233h155v293h312v-293h225v-233h-225v-353q0 -100 34 -134q50 -50 214 -27v-240q-94 -16 -179 -16z" />
    <glyph glyph-name="Utilde" unicode="&#x168;" horiz-adv-x="1345" 
d="M115 489v945h331v-942q0 -100 64 -171t162 -71q100 0 164 71q63 71 63 171v942h332v-945q0 -227 -154 -377q-153 -150 -405 -149t-404 151t-153 375z" />
    <glyph glyph-name="utilde" unicode="&#x169;" 
d="M797 987h313v-987h-313v141q-88 -166 -324 -166q-190 0 -276 113q-76 94 -76 313v586h311v-506q0 -240 174 -239q94 0 143 66q48 67 48 184v495z" />
    <glyph glyph-name="Umacron" unicode="&#x16a;" horiz-adv-x="1345" 
d="M115 489v945h331v-942q0 -100 64 -171t162 -71q100 0 164 71q63 71 63 171v942h332v-945q0 -227 -154 -377q-153 -150 -405 -149t-404 151t-153 375z" />
    <glyph glyph-name="umacron" unicode="&#x16b;" 
d="M797 987h313v-987h-313v141q-88 -166 -324 -166q-190 0 -276 113q-76 94 -76 313v586h311v-506q0 -240 174 -239q94 0 143 66q48 67 48 184v495z" />
    <glyph glyph-name="Ubreve" unicode="&#x16c;" horiz-adv-x="1345" 
d="M115 489v945h331v-942q0 -100 64 -171t162 -71q100 0 164 71q63 71 63 171v942h332v-945q0 -227 -154 -377q-153 -150 -405 -149t-404 151t-153 375z" />
    <glyph glyph-name="ubreve" unicode="&#x16d;" 
d="M797 987h313v-987h-313v141q-88 -166 -324 -166q-190 0 -276 113q-76 94 -76 313v586h311v-506q0 -240 174 -239q94 0 143 66q48 67 48 184v495z" />
    <glyph glyph-name="Uring" unicode="&#x16e;" horiz-adv-x="1345" 
d="M115 489v945h331v-942q0 -100 64 -171t162 -71q100 0 164 71q63 71 63 171v942h332v-945q0 -227 -154 -377q-153 -150 -405 -149t-404 151t-153 375z" />
    <glyph glyph-name="uring" unicode="&#x16f;" 
d="M797 987h313v-987h-313v141q-88 -166 -324 -166q-190 0 -276 113q-76 94 -76 313v586h311v-506q0 -240 174 -239q94 0 143 66q48 67 48 184v495z" />
    <glyph glyph-name="Uhungarumlaut" unicode="&#x170;" horiz-adv-x="1345" 
d="M115 489v945h331v-942q0 -100 64 -171t162 -71q100 0 164 71q63 71 63 171v942h332v-945q0 -227 -154 -377q-153 -150 -405 -149t-404 151t-153 375z" />
    <glyph glyph-name="uhungarumlaut" unicode="&#x171;" 
d="M797 987h313v-987h-313v141q-88 -166 -324 -166q-190 0 -276 113q-76 94 -76 313v586h311v-506q0 -240 174 -239q94 0 143 66q48 67 48 184v495z" />
    <glyph glyph-name="Uogonek" unicode="&#x172;" horiz-adv-x="1345" 
d="M115 489v945h331v-942q0 -100 64 -171t162 -71q100 0 164 71q63 71 63 171v942h332v-945q0 -227 -154 -377q-153 -150 -405 -149t-404 151t-153 375z" />
    <glyph glyph-name="uogonek" unicode="&#x173;" 
d="M797 987h313v-987h-313v141q-88 -166 -324 -166q-190 0 -276 113q-76 94 -76 313v586h311v-506q0 -240 174 -239q94 0 143 66q48 67 48 184v495z" />
    <glyph glyph-name="Wcircumflex" unicode="&#x174;" horiz-adv-x="2119" 
d="M1346 0l-285 901l-285 -901h-272l-506 1434h350l293 -940l291 940h256l293 -940l291 940h350l-506 -1434h-270z" />
    <glyph glyph-name="wcircumflex" unicode="&#x175;" horiz-adv-x="1644" 
d="M1024 0l-201 629l-202 -629h-254l-369 987h324l182 -588l174 588h289l174 -588l182 588h324l-369 -987h-254z" />
    <glyph glyph-name="Ycircumflex" unicode="&#x176;" horiz-adv-x="1325" 
d="M1329 1434l-711 -1434h-366l264 539l-508 895h387l305 -564l263 564h366z" />
    <glyph glyph-name="ycircumflex" unicode="&#x177;" horiz-adv-x="1259" 
d="M1130 -25q0 -227 -132 -337t-374 -111q-243 0 -368 102q-135 115 -135 295h313q4 -82 58 -127t141 -45q88 0 136 46t48 157v203q-86 -166 -315 -166q-195 0 -285 119q-76 94 -76 305v571h312v-506q0 -240 174 -239q94 0 142 66t48 184v495h313v-1012z" />
    <glyph glyph-name="Ydieresis" unicode="&#x178;" horiz-adv-x="1325" 
d="M1329 1434l-711 -1434h-366l264 539l-508 895h387l305 -564l263 564h366z" />
    <glyph glyph-name="Zacute" unicode="&#x179;" horiz-adv-x="1294" 
d="M92 1155v279h1172l-703 -1155h680v-279h-1206l700 1155h-643z" />
    <glyph glyph-name="zacute" unicode="&#x17a;" horiz-adv-x="983" 
d="M63 987h893l-434 -721h420v-266h-905l436 721h-410v266z" />
    <glyph glyph-name="Zdotaccent" unicode="&#x17b;" horiz-adv-x="1294" 
d="M92 1155v279h1172l-703 -1155h680v-279h-1206l700 1155h-643z" />
    <glyph glyph-name="zdotaccent" unicode="&#x17c;" horiz-adv-x="983" 
d="M63 987h893l-434 -721h420v-266h-905l436 721h-410v266z" />
    <glyph glyph-name="Zcaron" unicode="&#x17d;" horiz-adv-x="1294" 
d="M92 1155v279h1172l-703 -1155h680v-279h-1206l700 1155h-643z" />
    <glyph glyph-name="zcaron" unicode="&#x17e;" horiz-adv-x="983" 
d="M63 987h893l-434 -721h420v-266h-905l436 721h-410v266z" />
    <glyph glyph-name="Aringacute" unicode="&#x1fa;" horiz-adv-x="1351" 
d="M1343 0h-360l-55 174h-510l-56 -174h-354l512 1434h305zM846 434l-172 590l-176 -590h348z" />
    <glyph glyph-name="aringacute" unicode="&#x1fb;" horiz-adv-x="1300" 
d="M854 987h313v-987h-313v139q-37 -71 -122 -117t-179 -47q-211 -1 -346 147t-135 372t135 370q135 147 346 148q94 0 179 -48t122 -118v141zM618 242q104 0 170 74t66 178t-66 178t-170 74t-170 -74t-65 -178q-1 -104 65 -178t170 -74z" />
    <glyph glyph-name="AEacute" unicode="&#x1fc;" horiz-adv-x="2488" 
d="M2363 1167h-542v-325h542v-260h-542v-316h542v-266h-874v1434h874v-267zM1343 0h-360l-55 174h-510l-56 -174h-354l512 1434h305zM846 434l-172 590l-176 -590h348z" />
    <glyph glyph-name="aeacute" unicode="&#x1fd;" horiz-adv-x="2482" 
d="M1890 805q-92 0 -150 -54t-59 -153h414q0 94 -56 151q-57 56 -149 56zM1901 199q145 0 182 112h307q-23 -145 -153 -241t-334 -97q-253 1 -393 143t-140 372t138 378t374 148t378 -132t142 -319q0 -86 -10 -145h-711q12 -219 220 -219zM854 987h313v-987h-313v139
q-37 -71 -122 -117t-179 -47q-211 -1 -346 147t-135 372t135 370q135 147 346 148q94 0 179 -48t122 -118v141zM618 242q104 0 170 74t66 178t-66 178t-170 74t-170 -74t-65 -178q-1 -104 65 -178t170 -74z" />
    <glyph glyph-name="Oslashacute" unicode="&#x1fe;" horiz-adv-x="1648" 
d="M825 262q188 0 304 135t116 319t-116 320q-116 135 -304 135t-304 -134q-115 -134 -115 -320t115 -321q116 -134 304 -134zM1583 717q0 -309 -208 -531t-551 -223q-343 0 -551 222q-207 221 -207 531t207 532q208 222 551 222t551 -222t208 -531z" />
    <glyph glyph-name="oslashacute" unicode="&#x1ff;" horiz-adv-x="1226" 
d="M612 242q104 0 171 72t67 180q0 106 -67 179t-171 73t-169 -74q-65 -72 -65 -178t65 -180q65 -72 169 -72zM613 -27q-249 0 -399 151t-148 370q0 220 150 370t398 150t398 -151t150 -369t-150 -370q-150 -151 -399 -151z" />
    <glyph glyph-name="Scommaaccent" unicode="&#x218;" horiz-adv-x="1241" 
d="M78 475h332q0 -115 63 -181t155 -67q92 0 146 47q53 47 53 121q0 109 -133 165q-32 13 -112 43q-80 29 -132 51t-127 65t-112 86q-94 109 -92 262q0 188 147 296q147 107 374 107q228 0 360 -131t133 -325h-332q0 96 -46 151t-126 55t-130 -38q-50 -39 -50 -107
q0 -67 52 -111t136 -73t161 -57t133 -63q132 -84 162 -135q64 -107 64 -214q0 -217 -148 -338q-149 -121 -389 -121t-391 136t-151 376z" />
    <glyph glyph-name="scommaaccent" unicode="&#x219;" horiz-adv-x="1044" 
d="M969 291q0 -166 -123 -242t-330 -76q-207 -1 -328 93t-120 264h307q0 -145 157 -146q129 0 130 92q0 50 -50 73q-28 14 -76 30l-81 27q-168 51 -225 81q-56 29 -80 57q-57 66 -58 169q0 149 116 225t322 76t315 -93q110 -93 109 -241h-309q0 129 -129 129q-51 0 -84 -23
t-33 -61q-1 -38 17 -50q18 -13 29 -21t37 -17q26 -10 45 -16q19 -7 58 -19t93 -28q221 -67 268 -164q23 -49 23 -119z" />
    <glyph glyph-name="uni021A" unicode="&#x21a;" horiz-adv-x="1042" 
d="M354 0v1147h-323v287h981v-287h-326v-1147h-332z" />
    <glyph glyph-name="uni021B" unicode="&#x21b;" 
d="M797 987h313v-987h-313v141q-88 -166 -324 -166q-190 0 -276 113q-76 94 -76 313v586h311v-506q0 -240 174 -239q94 0 143 66q48 67 48 184v495z" />
    <glyph glyph-name="uni0401" unicode="&#x401;" horiz-adv-x="1136" 
d="M1012 1167h-543v-325h543v-260h-543v-316h543v-266h-875v1434h875v-267z" />
    <glyph glyph-name="uni0403" unicode="&#x403;" horiz-adv-x="999" 
d="M137 0v1434h858v-287h-526v-1147h-332z" />
    <glyph glyph-name="uni0404" unicode="&#x404;" horiz-adv-x="1562" 
d="M840 -37q-264 -1 -439 105q-174 106 -255 274t-80 375q0 321 196 537t555 216q285 0 466 -156t212 -392h-352q-17 110 -109 180t-244 70t-249 -98q-98 -97 -121 -251h543v-219h-541q23 -154 120 -248q98 -94 250 -94t244 70t109 182h352q-31 -238 -212 -394t-445 -157z
" />
    <glyph glyph-name="uni0405" unicode="&#x405;" horiz-adv-x="1241" 
d="M78 475h332q0 -115 63 -181t155 -67q92 0 146 47q53 47 53 121q0 109 -133 165q-32 13 -112 43q-80 29 -132 51t-127 65t-112 86q-94 109 -92 262q0 188 147 296q147 107 374 107q228 0 360 -131t133 -325h-332q0 96 -46 151t-126 55t-130 -38q-50 -39 -50 -107
q0 -67 52 -111t136 -73t161 -57t133 -63q132 -84 162 -135q64 -107 64 -214q0 -217 -148 -338q-149 -121 -389 -121t-391 136t-151 376z" />
    <glyph glyph-name="uni0406" unicode="&#x406;" horiz-adv-x="610" 
d="M137 0v1434h336v-1434h-336z" />
    <glyph glyph-name="uni0407" unicode="&#x407;" horiz-adv-x="610" 
d="M137 0v1434h336v-1434h-336z" />
    <glyph glyph-name="uni0408" unicode="&#x408;" horiz-adv-x="1193" 
d="M1071 1434v-940q0 -254 -138 -392t-387 -137t-385 149t-136 382h331q0 -111 50 -179q50 -67 142 -67q93 0 143 64t50 180v940h330z" />
    <glyph glyph-name="uni0409" unicode="&#x409;" horiz-adv-x="1458" 
d="M20 -31v269h97q47 0 73 22t27 64v1110h1104v-1434h-332v1151h-440v-864q0 -162 -91 -240t-247 -78h-191z" />
    <glyph glyph-name="uni040A" unicode="&#x40a;" horiz-adv-x="1431" 
d="M965 0v569h-496v-569h-332v1434h332v-580h496v580h329v-1434h-329z" />
    <glyph glyph-name="uni040C" unicode="&#x40c;" horiz-adv-x="1349" 
d="M469 1434v-560h25q113 0 200 150l115 199q129 221 350 221h115v-291h-45q-111 0 -174 -104l-80 -138q-82 -139 -215 -176l567 -735h-401l-457 645v-645h-332v1434h332z" />
    <glyph glyph-name="uni040E" unicode="&#x40e;" horiz-adv-x="1325" 
d="M1329 1434l-711 -1434h-366l264 539l-508 895h387l305 -564l263 564h366z" />
    <glyph glyph-name="uni040F" unicode="&#x40f;" horiz-adv-x="1402" 
d="M852 -201h-299v201h-416v1434h332v-1151h467v1151h330v-1434h-414v-201z" />
    <glyph glyph-name="uni0410" unicode="&#x410;" horiz-adv-x="1351" 
d="M1343 0h-360l-55 174h-510l-56 -174h-354l512 1434h305zM846 434l-172 590l-176 -590h348z" />
    <glyph glyph-name="uni0411" unicode="&#x411;" horiz-adv-x="1284" 
d="M702 608h-233v-354h233q78 0 125 50t47 126t-46 127t-126 51zM1098 1434v-267h-629v-317h319q186 0 304 -122t116 -300q0 -178 -116 -303t-304 -125h-651v1434h961z" />
    <glyph glyph-name="uni0412" unicode="&#x412;" horiz-adv-x="1304" 
d="M676 606h-207v-352h205q112 0 156 51t44 121t-46 125t-152 55zM469 850h197q108 0 154 52t46 119t-44 118t-156 51h-197v-340zM137 0v1434h596q139 0 237 -38t143 -102q83 -115 83 -243q0 -129 -77 -215t-173 -109q84 -2 173 -91t89 -235q0 -189 -134 -304
q-115 -97 -337 -97h-600z" />
    <glyph glyph-name="uni0413" unicode="&#x413;" horiz-adv-x="999" 
d="M137 0v1434h858v-287h-526v-1147h-332z" />
    <glyph glyph-name="uni0414" unicode="&#x414;" horiz-adv-x="1554" 
d="M326 -201h-299v477h22q160 0 259 125t100 336v697h954v-1158h125v-477h-299v201h-862v-201zM1049 276v881h-336v-242q0 -266 -46 -422t-171 -217h553z" />
    <glyph glyph-name="uni0415" unicode="&#x415;" horiz-adv-x="1136" 
d="M1012 1167h-543v-325h543v-260h-543v-316h543v-266h-875v1434h875v-267z" />
    <glyph glyph-name="uni0416" unicode="&#x416;" horiz-adv-x="1976" 
d="M100 1159h-41v285h99q240 0 356 -219l109 -201q51 -92 92 -133t94 -41h20v584h318v-584h20q53 0 95 41q41 41 92 133l108 201q117 219 357 219h98v-285h-41q-111 0 -168 -106l-78 -135q-82 -147 -203 -183l539 -735h-395l-424 645v-645h-318v645l-423 -645h-396l539 735
q-121 35 -203 183l-78 135q-57 106 -168 106z" />
    <glyph glyph-name="uni0417" unicode="&#x417;" horiz-adv-x="1269" 
d="M68 481h340q0 -111 63 -175t159 -64t147 53q50 53 50 138q0 179 -231 179h-123v252h123q219 0 219 176q0 74 -51 121t-141 47q-91 0 -147 -53t-56 -149h-340q0 198 140 328t415 130q225 0 373 -100t147 -301q0 -119 -71 -206t-169 -112q109 -25 183 -117t73 -229
q-1 -197 -155 -313t-377 -117q-283 0 -427 138t-144 374z" />
    <glyph glyph-name="uni0418" unicode="&#x418;" horiz-adv-x="1445" 
d="M977 0v893l-508 -795v-98h-332v1434h332v-893l508 794v99h332v-1434h-332z" />
    <glyph glyph-name="uni0419" unicode="&#x419;" horiz-adv-x="1445" 
d="M977 0v893l-508 -795v-98h-332v1434h332v-893l508 794v99h332v-1434h-332z" />
    <glyph glyph-name="uni041A" unicode="&#x41a;" horiz-adv-x="1349" 
d="M469 1434v-560h25q113 0 200 150l115 199q129 221 350 221h115v-291h-45q-111 0 -174 -104l-80 -138q-82 -139 -215 -176l567 -735h-401l-457 645v-645h-332v1434h332z" />
    <glyph glyph-name="uni041B" unicode="&#x41b;" horiz-adv-x="1458" 
d="M20 -31v269h97q47 0 73 22t27 64v1110h1104v-1434h-332v1151h-440v-864q0 -162 -91 -240t-247 -78h-191z" />
    <glyph glyph-name="uni041C" unicode="&#x41c;" horiz-adv-x="1796" 
d="M1659 1434v-1434h-324v889l-309 -889h-246l-319 889v-889h-324v1434h383l383 -998l379 998h377z" />
    <glyph glyph-name="uni041D" unicode="&#x41d;" horiz-adv-x="1431" 
d="M965 0v569h-496v-569h-332v1434h332v-580h496v580h329v-1434h-329z" />
    <glyph glyph-name="uni041E" unicode="&#x41e;" horiz-adv-x="1648" 
d="M825 262q188 0 304 135t116 319t-116 320q-116 135 -304 135t-304 -134q-115 -134 -115 -320t115 -321q116 -134 304 -134zM1583 717q0 -309 -208 -531t-551 -223q-343 0 -551 222q-207 221 -207 531t207 532q208 222 551 222t551 -222t208 -531z" />
    <glyph glyph-name="uni041F" unicode="&#x41f;" horiz-adv-x="1431" 
d="M963 1151h-494v-1151h-332v1434h1157v-1434h-331v1151z" />
    <glyph glyph-name="uni0420" unicode="&#x420;" horiz-adv-x="1300" 
d="M696 668q102 0 166 72q63 73 64 175q0 101 -64 175t-166 73h-227v-495h227zM137 0v1434h600q231 0 377 -152t146 -367t-146 -367t-377 -151h-268v-397h-332z" />
    <glyph glyph-name="uni0421" unicode="&#x421;" horiz-adv-x="1613" 
d="M836 -37q-350 0 -561 220q-209 219 -209 531t206 534q208 222 536 222t518 -166q189 -167 222 -427h-346q-25 131 -120 213t-244 81q-201 0 -318 -133q-117 -132 -117 -324t121 -322t330 -130q121 0 218 72t126 180h352q-44 -238 -236 -394t-478 -157z" />
    <glyph glyph-name="uni0422" unicode="&#x422;" horiz-adv-x="1042" 
d="M354 0v1147h-323v287h981v-287h-326v-1147h-332z" />
    <glyph glyph-name="uni0423" unicode="&#x423;" horiz-adv-x="1325" 
d="M1329 1434l-711 -1434h-366l264 539l-508 895h387l305 -564l263 564h366z" />
    <glyph glyph-name="uni0424" unicode="&#x424;" horiz-adv-x="1687" 
d="M606 432h82v569h-82q-106 1 -171 -79t-65 -204t66 -205q64 -81 170 -81zM1081 1001h-82v-569h82q106 0 171 81t65 205t-65 204t-171 79zM1081 154h-82v-154h-311v154h-82q-254 0 -406 166t-153 398q0 234 153 398t406 164h82v154h311v-154h82q254 0 407 -164
q152 -164 152 -397t-152 -400q-153 -165 -407 -165z" />
    <glyph glyph-name="uni0425" unicode="&#x425;" horiz-adv-x="1259" 
d="M631 971l250 463h364l-426 -717l426 -717h-364l-250 461l-250 -461h-367l426 717l-426 717h367z" />
    <glyph glyph-name="uni0426" unicode="&#x426;" horiz-adv-x="1482" 
d="M1456 -201h-299v201h-1020v1434h332v-1151h465v1151h332v-1151h190v-484z" />
    <glyph glyph-name="uni0427" unicode="&#x427;" horiz-adv-x="1288" 
d="M1151 0h-330v414h-284q-215 0 -348 132q-132 132 -132 328v560h332v-482q0 -137 67 -208t183 -70h182v760h330v-1434z" />
    <glyph glyph-name="uni0428" unicode="&#x428;" horiz-adv-x="2021" 
d="M1884 0h-1747v1434h330v-1151h379v1151h330v-1151h380v1151h328v-1434z" />
    <glyph glyph-name="uni0429" unicode="&#x429;" horiz-adv-x="2103" 
d="M2075 -201h-314v201h-1624v1434h330v-1151h379v1151h330v-1151h380v1151h328v-1151h191v-484z" />
    <glyph glyph-name="uni042A" unicode="&#x42a;" horiz-adv-x="1411" 
d="M858 608h-233v-354h233q78 0 125 50t47 126t-46 127t-126 51zM20 1147v287h605v-574h319q186 0 303 -125t117 -305t-117 -305t-303 -125h-651v1147h-273z" />
    <glyph glyph-name="uni042B" unicode="&#x42b;" horiz-adv-x="1732" 
d="M670 608h-201v-354h201q78 0 125 50t47 126t-46 127t-126 51zM137 1434h332v-574h287q186 0 303 -125t117 -305t-117 -305t-303 -125h-619v1434zM1264 0v1434h331v-1434h-331z" />
    <glyph glyph-name="uni042C" unicode="&#x42c;" horiz-adv-x="1255" 
d="M702 608h-233v-354h233q78 0 125 50t47 126t-46 127t-126 51zM137 1434h332v-574h319q186 0 304 -125t116 -305q0 -180 -116 -305t-304 -125h-651v1434z" />
    <glyph glyph-name="uni042D" unicode="&#x42d;" horiz-adv-x="1574" 
d="M614 602v221h545q-23 158 -120 253t-251 95q-154 1 -251 -81q-96 -82 -121 -213h-346q35 262 218 428q182 165 508 165t520 -213t194 -543t-198 -540q-198 -211 -544 -211q-281 0 -470 157t-232 394h354q29 -108 131 -180q103 -72 245 -72t240 89t123 251h-545z" />
    <glyph glyph-name="uni042E" unicode="&#x42e;" horiz-adv-x="2228" 
d="M1403 262q188 0 304 134t116 320t-116 321q-116 134 -304 134t-304 -135t-116 -319q0 -183 116 -319t304 -136zM1403 -37q-299 0 -495 172t-242 434h-197v-569h-332v1434h332v-580h195q43 264 240 440q198 176 499 176q344 0 552 -222t208 -531t-208 -531t-552 -223z" />
    <glyph glyph-name="uni042F" unicode="&#x42f;" horiz-adv-x="1339" 
d="M1202 1434v-1434h-332v397h-157l-252 -397h-385l284 453q-130 63 -206 187t-76 275q0 215 145 367t377 152h602zM414 915q0 -102 63 -175t166 -72h227v495h-227q-102 0 -166 -72q-63 -74 -63 -176z" />
    <glyph glyph-name="uni0430" unicode="&#x430;" horiz-adv-x="1296" 
d="M850 987h311v-987h-311v139q-37 -71 -123 -117t-180 -47q-211 -1 -346 147t-135 372t135 370q135 147 346 148q94 0 180 -48t123 -118v141zM613 242q103 0 170 72t67 178t-67 180t-170 74t-169 -74t-66 -178t66 -179q66 -73 169 -73z" />
    <glyph glyph-name="uni0431" unicode="&#x431;" horiz-adv-x="1253" 
d="M883 483q0 105 -65 179q-66 74 -172 74t-170 -72q-64 -70 -64 -181t64 -181t170 -71q106 0 172 73q65 73 65 179zM717 975q217 -1 342 -145t125 -354t-144 -356t-391 -146q-246 0 -393 155q-174 184 -174 537q0 420 211 610q172 158 528 158h252v-279h-278
q-213 0 -318 -98q-117 -117 -129 -332q43 121 141 185t228 65z" />
    <glyph glyph-name="uni0432" unicode="&#x432;" horiz-adv-x="1103" 
d="M608 418h-172v-238h170q53 0 87 34t34 85t-33 85t-86 34zM436 580h166q51 0 82 32t31 80q0 49 -31 81t-82 32h-166v-225zM133 0v987h576q190 0 261 -93q56 -74 56 -165q0 -92 -72 -152t-178 -69q123 -4 195 -66q71 -62 71 -162q0 -101 -66 -181q-36 -43 -112 -71
t-180 -28h-551z" />
    <glyph glyph-name="uni0433" unicode="&#x433;" horiz-adv-x="786" 
d="M133 987h647v-252h-344v-735h-303v987z" />
    <glyph glyph-name="uni0434" unicode="&#x434;" horiz-adv-x="1251" 
d="M293 -213h-266v449h26q109 0 164 70t55 188v493h828v-751h90v-449h-266v213h-631v-213zM829 236v516h-290v-236q0 -225 -117 -280h407z" />
    <glyph glyph-name="uni0435" unicode="&#x435;" horiz-adv-x="1179" 
d="M793 598q1 94 -55 150t-149 57q-93 0 -151 -55t-59 -152h414zM600 199q141 0 182 112h308q-25 -145 -155 -241t-335 -97q-252 1 -392 143t-140 372t138 378t376 148t378 -132q142 -132 142 -319q0 -73 -12 -145h-711q12 -219 221 -219z" />
    <glyph glyph-name="uni0436" unicode="&#x436;" horiz-adv-x="1558" 
d="M84 758h-45v239h102q98 0 161 -31q62 -32 112 -120l90 -160q32 -49 56 -72t61 -22h16v395h285v-395h18q61 0 115 94l90 160q49 88 111 120t161 31h103v-239h-45q-78 0 -121 -78l-43 -72q-47 -84 -150 -104l387 -504h-338l-288 424v-424h-285v424l-289 -424h-338l389 504
q-102 20 -151 104l-41 72q-43 78 -123 78z" />
    <glyph glyph-name="uni0437" unicode="&#x437;" horiz-adv-x="1015" 
d="M47 319h311q0 -131 150 -131q55 0 89 26t34 73q0 123 -162 123h-111v178h103q160 0 160 121q0 45 -34 73t-89 29q-129 0 -129 -129h-308q0 144 110 238q109 94 315 94t323 -74t117 -205q0 -105 -60 -161t-151 -68q99 -10 161 -70t62 -166q0 -139 -129 -220t-307 -81
q-231 0 -343 95t-112 255z" />
    <glyph glyph-name="uni0438" unicode="&#x438;" horiz-adv-x="1255" 
d="M819 0v580l-383 -504v-76h-303v987h303v-594l383 506v88h303v-987h-303z" />
    <glyph glyph-name="uni0439" unicode="&#x439;" horiz-adv-x="1255" 
d="M819 0v580l-383 -504v-76h-303v987h303v-594l383 506v88h303v-987h-303z" />
    <glyph glyph-name="uni043A" unicode="&#x43a;" horiz-adv-x="1136" 
d="M436 987v-401h19q66 0 131 106l106 162q48 78 110 111t159 32h108v-243h-45q-82 0 -125 -66l-51 -80q-55 -82 -154 -100l416 -508h-362l-312 424v-424h-303v987h303z" />
    <glyph glyph-name="uni043B" unicode="&#x43b;" horiz-adv-x="1247" 
d="M35 -25v261h55q90 0 90 79v672h934v-987h-303v735h-332v-452q0 -307 -323 -308h-121z" />
    <glyph glyph-name="uni043C" unicode="&#x43c;" horiz-adv-x="1638" 
d="M1505 987v-987h-286v758l-279 -758h-235l-285 758v-758h-287v987h457l231 -645l234 645h450z" />
    <glyph glyph-name="uni043D" unicode="&#x43d;" horiz-adv-x="1239" 
d="M803 0v373h-367v-373h-303v987h303v-362h367v362h303v-987h-303z" />
    <glyph glyph-name="uni043E" unicode="&#x43e;" horiz-adv-x="1226" 
d="M612 242q104 0 171 72t67 180q0 106 -67 179t-171 73t-169 -74q-65 -72 -65 -178t65 -180q65 -72 169 -72zM613 -27q-249 0 -399 151t-148 370q0 220 150 370t398 150t398 -151t150 -369t-150 -370q-150 -151 -399 -151z" />
    <glyph glyph-name="uni043F" unicode="&#x43f;" horiz-adv-x="1224" 
d="M1092 987v-987h-301v735h-355v-735h-303v987h959z" />
    <glyph glyph-name="uni0440" unicode="&#x440;" horiz-adv-x="1304" 
d="M446 987v-141q37 70 123 118t181 48q211 0 346 -148t135 -370t-135 -370t-346 -149q-94 1 -180 49t-124 117v-587h-313v1433h313zM446 494q0 -106 67 -180t170 -72q103 0 169 74t66 178t-66 178t-169 73t-170 -73t-67 -178z" />
    <glyph glyph-name="uni0441" unicode="&#x441;" horiz-adv-x="1177" 
d="M381 492q0 -110 57 -181q57 -72 174 -71q143 0 185 131h313q-25 -176 -156 -287q-132 -111 -368 -111t-377 152t-141 369q0 216 141 368t383 152t371 -119t145 -295h-313q-20 147 -195 148q-106 0 -162 -73t-57 -183z" />
    <glyph glyph-name="uni0442" unicode="&#x442;" horiz-adv-x="892" 
d="M20 987h852v-252h-276v-735h-301v735h-275v252z" />
    <glyph glyph-name="uni0443" unicode="&#x443;" horiz-adv-x="1259" 
d="M1130 -25q0 -448 -509 -448q-240 1 -370 107t-130 290h313q4 -82 58 -127t141 -45q88 0 136 46t48 157v203q-86 -166 -315 -166q-195 0 -285 119q-76 94 -76 305v571h312v-506q0 -240 174 -239q94 0 142 66t48 184v495h313v-1012z" />
    <glyph glyph-name="uni0444" unicode="&#x444;" horiz-adv-x="1406" 
d="M821 231q109 0 170 76t61 186q0 109 -60 183q-62 74 -171 80v-525zM354 492q0 -108 62 -184q62 -77 168 -77h2v525h-2q-106 -6 -168 -81t-62 -183zM586 -446v421q-233 10 -377 160q-143 150 -143 358q0 209 143 359t377 158v424h235v-424q231 -8 375 -159t145 -359
q0 -208 -143 -357q-143 -150 -377 -160v-421h-235z" />
    <glyph glyph-name="uni0445" unicode="&#x445;" horiz-adv-x="1077" 
d="M723 498l340 -498h-363l-161 287l-162 -287h-363l338 498l-332 489h363l156 -278l155 278h363z" />
    <glyph glyph-name="uni0446" unicode="&#x446;" horiz-adv-x="1294" 
d="M1239 -174h-281v174h-825v987h303v-735h346v735h303v-735h154v-426z" />
    <glyph glyph-name="uni0447" unicode="&#x447;" horiz-adv-x="1095" 
d="M961 0h-302v270h-239q-170 0 -261 86t-91 254v377h303v-348q0 -139 143 -139h145v487h302v-987z" />
    <glyph glyph-name="uni0448" unicode="&#x448;" horiz-adv-x="1722" 
d="M1006 987v-735h292v735h291v-987h-1456v987h291v-735h293v735h289z" />
    <glyph glyph-name="uni0449" unicode="&#x449;" horiz-adv-x="1798" 
d="M1743 -174h-281v174h-1329v987h291v-735h293v735h289v-735h292v735h291v-735h154v-426z" />
    <glyph glyph-name="uni044A" unicode="&#x44a;" horiz-adv-x="1171" 
d="M686 469h-162v-266h162q63 0 99 37t36 97q-1 60 -35 96t-100 36zM231 0v750h-204v237h497v-309h234q180 0 266 -96t86 -240t-87 -242q-87 -100 -265 -100h-527z" />
    <glyph glyph-name="uni044B" unicode="&#x44b;" horiz-adv-x="1542" 
d="M588 469h-162v-266h162q66 0 102 37t35 96q1 59 -35 96t-102 37zM1098 0v987h311v-987h-311zM133 0v987h293v-309h233q181 0 267 -96t86 -240t-87 -242q-87 -100 -266 -100h-526z" />
    <glyph glyph-name="uni044C" unicode="&#x44c;" horiz-adv-x="1073" 
d="M588 469h-162v-266h162q66 0 102 37t35 96q1 59 -35 96t-102 37zM133 0v987h293v-309h233q181 0 267 -96t86 -240t-87 -242q-87 -100 -266 -100h-526z" />
    <glyph glyph-name="uni044D" unicode="&#x44d;" horiz-adv-x="1191" 
d="M605 1014q245 0 383 -150t138 -370t-138 -371q-138 -150 -384 -150t-386 111t-150 287h313q27 -152 223 -152t213 189h-323v165h323q-17 195 -211 195t-223 -168h-313q10 180 150 297t385 117z" />
    <glyph glyph-name="uni044E" unicode="&#x44e;" horiz-adv-x="1683" 
d="M1069 242q104 0 171 72t67 180q0 106 -67 179t-171 73t-169 -74q-64 -72 -64 -178t64 -180q65 -72 169 -72zM436 369v-369h-303v987h303v-366h111q39 173 177 283t345 110q249 0 399 -151t150 -369t-150 -370q-150 -151 -399 -151q-209 0 -346 111t-176 285h-111z" />
    <glyph glyph-name="uni044F" unicode="&#x44f;" horiz-adv-x="1130" 
d="M416 987h579v-987h-303v276h-129l-174 -276h-340l217 317q-100 39 -155 125t-56 189q1 150 101 253t260 103zM498 494h194v276h-194q-62 0 -102 -40t-40 -98t40 -98t102 -40z" />
    <glyph glyph-name="uni0451" unicode="&#x451;" horiz-adv-x="1179" 
d="M793 598q1 94 -55 150t-149 57q-93 0 -151 -55t-59 -152h414zM600 199q141 0 182 112h308q-25 -145 -155 -241t-335 -97q-252 1 -392 143t-140 372t138 378t376 148t378 -132q142 -132 142 -319q0 -73 -12 -145h-711q12 -219 221 -219z" />
    <glyph glyph-name="uni0453" unicode="&#x453;" horiz-adv-x="786" 
d="M133 987h647v-252h-344v-735h-303v987z" />
    <glyph glyph-name="uni0454" unicode="&#x454;" horiz-adv-x="1198" 
d="M586 768q-194 0 -211 -195h323v-165h-323q17 -188 213 -188t223 151h313q-10 -176 -150 -287t-386 -111t-384 150t-138 371q0 220 138 370t382 150t386 -117q140 -117 150 -297h-313q-29 168 -223 168z" />
    <glyph glyph-name="uni0455" unicode="&#x455;" horiz-adv-x="1044" 
d="M969 291q0 -166 -123 -242t-330 -76q-207 1 -328 95t-120 264h307q0 -147 157 -148q129 0 130 92q0 50 -50 73q-28 14 -76 30l-81 27q-168 51 -225 81q-56 29 -80 57q-57 66 -58 169q0 149 116 225t322 76t315 -93q110 -93 109 -241h-309q0 129 -129 129q-51 0 -84 -23
t-33 -61q-1 -38 17 -50q18 -13 29 -21t37 -17q26 -10 45 -16q19 -7 58 -19t93 -28q221 -67 268 -164q23 -49 23 -119z" />
    <glyph glyph-name="uni0457" unicode="&#x457;" horiz-adv-x="0" 
 />
    <glyph glyph-name="uni0458" unicode="&#x458;" horiz-adv-x="579" 
d="M446 987v-1141q0 -178 -74 -248t-201 -69q-126 0 -200 25v239q37 -6 80 -6q82 0 82 100v1100h313zM88 1316q0 83 58 140t144 57t143 -57q59 -57 59 -140t-58 -141q-58 -59 -144 -59t-144 58t-58 142z" />
    <glyph glyph-name="uni0459" unicode="&#x459;" horiz-adv-x="1247" 
d="M35 -25v261h55q90 0 90 79v672h934v-987h-303v735h-332v-452q0 -307 -323 -308h-121z" />
    <glyph glyph-name="uni045A" unicode="&#x45a;" horiz-adv-x="1239" 
d="M803 0v373h-367v-373h-303v987h303v-362h367v362h303v-987h-303z" />
    <glyph glyph-name="uni045C" unicode="&#x45c;" horiz-adv-x="1136" 
d="M436 987v-401h19q66 0 131 106l106 162q48 78 110 111t159 32h108v-243h-45q-82 0 -125 -66l-51 -80q-55 -82 -154 -100l416 -508h-362l-312 424v-424h-303v987h303z" />
    <glyph glyph-name="uni045E" unicode="&#x45e;" horiz-adv-x="1259" 
d="M1130 -25q0 -448 -509 -448q-240 1 -370 107t-130 290h313q4 -82 58 -127t141 -45q88 0 136 46t48 157v203q-86 -166 -315 -166q-195 0 -285 119q-76 94 -76 305v571h312v-506q0 -240 174 -239q94 0 142 66t48 184v495h313v-1012z" />
    <glyph glyph-name="uni0490" unicode="&#x490;" horiz-adv-x="999" 
d="M137 0v1434h858v-287h-526v-1147h-332z" />
    <glyph glyph-name="uni0491" unicode="&#x491;" horiz-adv-x="786" 
d="M133 987h647v-252h-344v-735h-303v987z" />
    <glyph glyph-name="Wgrave" unicode="&#x1e80;" horiz-adv-x="2119" 
d="M1346 0l-285 901l-285 -901h-272l-506 1434h350l293 -940l291 940h256l293 -940l291 940h350l-506 -1434h-270z" />
    <glyph glyph-name="wgrave" unicode="&#x1e81;" horiz-adv-x="1644" 
d="M1024 0l-201 629l-202 -629h-254l-369 987h324l182 -588l174 588h289l174 -588l182 588h324l-369 -987h-254z" />
    <glyph glyph-name="Wacute" unicode="&#x1e82;" horiz-adv-x="2119" 
d="M1346 0l-285 901l-285 -901h-272l-506 1434h350l293 -940l291 940h256l293 -940l291 940h350l-506 -1434h-270z" />
    <glyph glyph-name="wacute" unicode="&#x1e83;" horiz-adv-x="1644" 
d="M1024 0l-201 629l-202 -629h-254l-369 987h324l182 -588l174 588h289l174 -588l182 588h324l-369 -987h-254z" />
    <glyph glyph-name="Wdieresis" unicode="&#x1e84;" horiz-adv-x="2119" 
d="M1346 0l-285 901l-285 -901h-272l-506 1434h350l293 -940l291 940h256l293 -940l291 940h350l-506 -1434h-270z" />
    <glyph glyph-name="wdieresis" unicode="&#x1e85;" horiz-adv-x="1644" 
d="M1024 0l-201 629l-202 -629h-254l-369 987h324l182 -588l174 588h289l174 -588l182 588h324l-369 -987h-254z" />
    <glyph glyph-name="Ygrave" unicode="&#x1ef2;" horiz-adv-x="1325" 
d="M1329 1434l-711 -1434h-366l264 539l-508 895h387l305 -564l263 564h366z" />
    <glyph glyph-name="ygrave" unicode="&#x1ef3;" horiz-adv-x="1259" 
d="M1130 -25q0 -227 -132 -337t-374 -111q-243 0 -368 102q-135 115 -135 295h313q4 -82 58 -127t141 -45q88 0 136 46t48 157v203q-86 -166 -315 -166q-195 0 -285 119q-76 94 -76 305v571h312v-506q0 -240 174 -239q94 0 142 66t48 184v495h313v-1012z" />
    <glyph glyph-name="endash" unicode="&#x2013;" horiz-adv-x="649" 
d="M584 733v-250h-518v250h518z" />
    <glyph glyph-name="emdash" unicode="&#x2014;" horiz-adv-x="649" 
d="M584 733v-250h-518v250h518z" />
    <glyph glyph-name="ff" unicode="&#xfb00;" horiz-adv-x="1556" 
d="M1300 1092v-105h232v-233h-229v-754h-314v754h-178v233h178v86q0 102 25 177t60 114q85 92 281 92q109 0 177 -26v-226q-133 33 -197 -11q-35 -24 -35 -101zM522 1092v-105h232v-233h-230v-754h-313v754h-178v233h178v86q0 102 25 177t60 114q85 92 281 92q109 0 177 -26
v-226q-135 33 -197 -11q-35 -24 -35 -101z" />
    <glyph glyph-name="fi" unicode="&#xfb01;" horiz-adv-x="1357" 
d="M911 0v987h314v-987h-314zM866 1316q0 83 58 140t144 57q85 0 143 -57q59 -57 59 -140t-58 -141q-58 -59 -144 -59t-144 58t-58 142zM522 1092v-105h232v-233h-230v-754h-313v754h-178v233h178v86q0 102 25 177t60 114q85 92 281 92q109 0 177 -26v-226q-135 33 -197 -11
q-35 -24 -35 -101z" />
  </font>
</defs>
</svg>
