<?xml version="1.0" standalone="no"?>
<!DOCTYPE svg PUBLIC "-//W3C//DTD SVG 20010904//EN"
 "http://www.w3.org/TR/2001/REC-SVG-20010904/DTD/svg10.dtd">
<svg version="1.0" xmlns="http://www.w3.org/2000/svg"
 width="260.000000pt" height="260.000000pt" viewBox="0 0 260.000000 260.000000"
 preserveAspectRatio="xMidYMid meet">
<metadata>
Created by potrace 1.11, written by Peter Selinger 2001-2013
</metadata>
<g transform="translate(0.000000,260.000000) scale(0.100000,-0.100000)"
fill="#000000" stroke="none">
<path d="M0 1300 l0 -1300 1300 0 1300 0 0 1300 0 1300 -1300 0 -1300 0 0
-1300z m1534 913 c9 -25 15 -47 13 -48 -1 -1 -171 -59 -377 -130 -206 -70
-380 -130 -386 -132 -10 -3 -50 87 -41 92 5 3 762 263 769 264 3 1 13 -20 22
-46z m-604 -633 c63 -34 88 -125 52 -189 -56 -101 -223 -94 -275 12 -36 72 7
168 83 187 37 9 115 4 140 -10z m830 -9 c82 -58 74 -193 -15 -235 -82 -39
-181 -9 -218 67 -36 72 7 168 83 187 47 12 120 3 150 -19z m-1236 -490 c145
-91 304 -155 479 -193 132 -28 376 -30 514 -5 181 33 355 101 510 199 91 58
103 51 103 -60 l0 -87 -73 -52 c-135 -96 -300 -166 -487 -208 -112 -25 -399
-31 -525 -11 -208 32 -408 111 -550 218 l-70 53 -3 80 c-2 66 0 82 14 92 23
17 18 19 88 -26z"/>
</g>
</svg>
